<?xml version="1.0" encoding="UTF-8" standalone="no"?>
<!DOCTYPE svg PUBLIC "-//W3C//DTD SVG 1.1//EN"
 "http://www.w3.org/Graphics/SVG/1.1/DTD/svg11.dtd">
<!-- Generated by graphviz version 2.50.0 (0)
 -->
<!-- Pages: 1 -->
<svg width="265pt" height="564pt"
 viewBox="21.60 21.60 243.60 542.45" xmlns="http://www.w3.org/2000/svg" xmlns:xlink="http://www.w3.org/1999/xlink">
<g id="graph0" class="graph" transform="scale(1 1) rotate(0) translate(25.6 538.45)">
<polygon fill="white" stroke="transparent" points="-4,4 -4,-516.85 218,-516.85 218,4 -4,4"/>
<!-- __start__ -->
<g id="node1" class="node">
<title>__start__</title>
<ellipse fill="#f4e8e8" stroke="black" cx="108.5" cy="-494.85" rx="47.89" ry="18"/>
<text text-anchor="middle" x="108.5" y="-492.35" font-family="Helvetica,sans-Serif" font-size="10.00">__start__</text>
</g>
<!-- load_documents -->
<g id="node3" class="node">
<title>load_documents</title>
<path fill="lightblue" stroke="black" d="M146.5,-447.85C146.5,-447.85 70.5,-447.85 70.5,-447.85 64.5,-447.85 58.5,-441.85 58.5,-435.85 58.5,-435.85 58.5,-423.85 58.5,-423.85 58.5,-417.85 64.5,-411.85 70.5,-411.85 70.5,-411.85 146.5,-411.85 146.5,-411.85 152.5,-411.85 158.5,-417.85 158.5,-423.85 158.5,-423.85 158.5,-435.85 158.5,-435.85 158.5,-441.85 152.5,-447.85 146.5,-447.85"/>
<text text-anchor="middle" x="108.5" y="-427.35" font-family="Helvetica,sans-Serif" font-size="10.00">load_documents</text>
</g>
<!-- __start__&#45;&gt;load_documents -->
<g id="edge8" class="edge">
<title>__start__&#45;&gt;load_documents</title>
<path fill="none" stroke="black" d="M108.5,-476.75C108.5,-476.75 108.5,-457.86 108.5,-457.86"/>
<polygon fill="black" stroke="black" points="112,-457.86 108.5,-447.86 105,-457.86 112,-457.86"/>
</g>
<!-- __end__ -->
<g id="node2" class="node">
<title>__end__</title>
<ellipse fill="#f4e8e8" stroke="black" cx="108.5" cy="-18" rx="45.34" ry="18"/>
<text text-anchor="middle" x="108.5" y="-15.5" font-family="Helvetica,sans-Serif" font-size="10.00">__end__</text>
</g>
<!-- validate_documents -->
<g id="node4" class="node">
<title>validate_documents</title>
<path fill="lightblue" stroke="black" d="M154.5,-382.85C154.5,-382.85 62.5,-382.85 62.5,-382.85 56.5,-382.85 50.5,-376.85 50.5,-370.85 50.5,-370.85 50.5,-358.85 50.5,-358.85 50.5,-352.85 56.5,-346.85 62.5,-346.85 62.5,-346.85 154.5,-346.85 154.5,-346.85 160.5,-346.85 166.5,-352.85 166.5,-358.85 166.5,-358.85 166.5,-370.85 166.5,-370.85 166.5,-376.85 160.5,-382.85 154.5,-382.85"/>
<text text-anchor="middle" x="108.5" y="-362.35" font-family="Helvetica,sans-Serif" font-size="10.00">validate_documents</text>
</g>
<!-- load_documents&#45;&gt;validate_documents -->
<g id="edge1" class="edge">
<title>load_documents&#45;&gt;validate_documents</title>
<path fill="none" stroke="black" d="M108.5,-411.75C108.5,-411.75 108.5,-392.86 108.5,-392.86"/>
<polygon fill="black" stroke="black" points="112,-392.86 108.5,-382.86 105,-392.86 112,-392.86"/>
</g>
<!-- process_documents -->
<g id="node5" class="node">
<title>process_documents</title>
<path fill="lightblue" stroke="black" d="M154.5,-317.85C154.5,-317.85 62.5,-317.85 62.5,-317.85 56.5,-317.85 50.5,-311.85 50.5,-305.85 50.5,-305.85 50.5,-293.85 50.5,-293.85 50.5,-287.85 56.5,-281.85 62.5,-281.85 62.5,-281.85 154.5,-281.85 154.5,-281.85 160.5,-281.85 166.5,-287.85 166.5,-293.85 166.5,-293.85 166.5,-305.85 166.5,-305.85 166.5,-311.85 160.5,-317.85 154.5,-317.85"/>
<text text-anchor="middle" x="108.5" y="-297.35" font-family="Helvetica,sans-Serif" font-size="10.00">process_documents</text>
</g>
<!-- validate_documents&#45;&gt;process_documents -->
<g id="edge6" class="edge">
<title>validate_documents&#45;&gt;process_documents</title>
<path fill="none" stroke="black" d="M108.5,-346.75C108.5,-346.75 108.5,-327.86 108.5,-327.86"/>
<polygon fill="black" stroke="black" points="112,-327.86 108.5,-317.86 105,-327.86 112,-327.86"/>
</g>
<!-- route_documents -->
<g id="node6" class="node">
<title>route_documents</title>
<path fill="#ffe4b5" stroke="black" d="M100.01,-244.29C100.01,-244.29 55.63,-199.91 55.63,-199.91 51.39,-195.67 51.39,-187.18 55.63,-182.94 55.63,-182.94 100.01,-138.56 100.01,-138.56 104.26,-134.32 112.74,-134.32 116.99,-138.56 116.99,-138.56 161.37,-182.94 161.37,-182.94 165.61,-187.18 165.61,-195.67 161.37,-199.91 161.37,-199.91 116.99,-244.29 116.99,-244.29 112.74,-248.54 104.26,-248.54 100.01,-244.29"/>
<text text-anchor="middle" x="108.5" y="-194.43" font-family="Helvetica,sans-Serif" font-size="10.00">route</text>
<text text-anchor="middle" x="108.5" y="-183.43" font-family="Helvetica,sans-Serif" font-size="10.00">documents</text>
</g>
<!-- process_documents&#45;&gt;route_documents -->
<g id="edge2" class="edge">
<title>process_documents&#45;&gt;route_documents</title>
<path fill="none" stroke="black" d="M108.5,-281.46C108.5,-281.46 108.5,-262.95 108.5,-262.95"/>
<polygon fill="black" stroke="black" points="112,-262.95 108.5,-252.95 105,-262.95 112,-262.95"/>
</g>
<!-- process_invoice -->
<g id="node7" class="node">
<title>process_invoice</title>
<path fill="lightblue" stroke="black" d="M87,-101C87,-101 12,-101 12,-101 6,-101 0,-95 0,-89 0,-89 0,-77 0,-77 0,-71 6,-65 12,-65 12,-65 87,-65 87,-65 93,-65 99,-71 99,-77 99,-77 99,-89 99,-89 99,-95 93,-101 87,-101"/>
<text text-anchor="middle" x="49.5" y="-80.5" font-family="Helvetica,sans-Serif" font-size="10.00">process_invoice</text>
</g>
<!-- route_documents&#45;&gt;process_invoice -->
<g id="edge7" class="edge">
<title>route_documents&#45;&gt;process_invoice</title>
<path fill="none" stroke="#666666" stroke-dasharray="5,2" d="M73.04,-165.46C73.04,-165.46 73.04,-111.3 73.04,-111.3"/>
<polygon fill="#666666" stroke="#666666" points="76.54,-111.3 73.04,-101.3 69.54,-111.3 76.54,-111.3"/>
</g>
<!-- cancel_invoice -->
<g id="node8" class="node">
<title>cancel_invoice</title>
<path fill="lightblue" stroke="black" d="M202,-101C202,-101 133,-101 133,-101 127,-101 121,-95 121,-89 121,-89 121,-77 121,-77 121,-71 127,-65 133,-65 133,-65 202,-65 202,-65 208,-65 214,-71 214,-77 214,-77 214,-89 214,-89 214,-95 208,-101 202,-101"/>
<text text-anchor="middle" x="167.5" y="-80.5" font-family="Helvetica,sans-Serif" font-size="10.00">cancel_invoice</text>
</g>
<!-- route_documents&#45;&gt;cancel_invoice -->
<g id="edge4" class="edge">
<title>route_documents&#45;&gt;cancel_invoice</title>
<path fill="none" stroke="#666666" stroke-dasharray="5,2" d="M145.46,-166.82C145.46,-166.82 145.46,-111.09 145.46,-111.09"/>
<polygon fill="#666666" stroke="#666666" points="148.96,-111.09 145.46,-101.09 141.96,-111.09 148.96,-111.09"/>
</g>
<!-- process_invoice&#45;&gt;__end__ -->
<g id="edge3" class="edge">
<title>process_invoice&#45;&gt;__end__</title>
<path fill="none" stroke="black" d="M81.17,-64.89C81.17,-64.89 81.17,-42.52 81.17,-42.52"/>
<polygon fill="black" stroke="black" points="84.67,-42.52 81.17,-32.52 77.67,-42.52 84.67,-42.52"/>
</g>
<!-- cancel_invoice&#45;&gt;__end__ -->
<g id="edge5" class="edge">
<title>cancel_invoice&#45;&gt;__end__</title>
<path fill="none" stroke="black" d="M137.33,-64.89C137.33,-64.89 137.33,-42.1 137.33,-42.1"/>
<polygon fill="black" stroke="black" points="140.83,-42.1 137.33,-32.1 133.83,-42.1 140.83,-42.1"/>
</g>
</g>
</svg>
