<?xml version="1.0" encoding="UTF-8" standalone="no"?>
<!DOCTYPE svg PUBLIC "-//W3C//DTD SVG 1.1//EN"
 "http://www.w3.org/Graphics/SVG/1.1/DTD/svg11.dtd">
<!-- Generated by graphviz version 2.50.0 (0)
 -->
<!-- Pages: 1 -->
<svg width="167pt" height="347pt"
 viewBox="21.60 21.60 145.60 325.60" xmlns="http://www.w3.org/2000/svg" xmlns:xlink="http://www.w3.org/1999/xlink">
<g id="graph0" class="graph" transform="scale(1 1) rotate(0) translate(25.6 321.6)">
<polygon fill="white" stroke="transparent" points="-4,4 -4,-300 120,-300 120,4 -4,4"/>
<!-- __start__ -->
<g id="node1" class="node">
<title>__start__</title>
<ellipse fill="#f4e8e8" stroke="black" cx="58" cy="-278" rx="47.89" ry="18"/>
<text text-anchor="middle" x="58" y="-275.5" font-family="Helvetica,sans-Serif" font-size="10.00">__start__</text>
</g>
<!-- load_documents -->
<g id="node3" class="node">
<title>load_documents</title>
<path fill="lightblue" stroke="black" d="M96,-231C96,-231 20,-231 20,-231 14,-231 8,-225 8,-219 8,-219 8,-207 8,-207 8,-201 14,-195 20,-195 20,-195 96,-195 96,-195 102,-195 108,-201 108,-207 108,-207 108,-219 108,-219 108,-225 102,-231 96,-231"/>
<text text-anchor="middle" x="58" y="-210.5" font-family="Helvetica,sans-Serif" font-size="10.00">load_documents</text>
</g>
<!-- __start__&#45;&gt;load_documents -->
<g id="edge3" class="edge">
<title>__start__&#45;&gt;load_documents</title>
<path fill="none" stroke="black" d="M58,-259.89C58,-259.89 58,-241.01 58,-241.01"/>
<polygon fill="black" stroke="black" points="61.5,-241.01 58,-231.01 54.5,-241.01 61.5,-241.01"/>
</g>
<!-- __end__ -->
<g id="node2" class="node">
<title>__end__</title>
<ellipse fill="#f4e8e8" stroke="black" cx="58" cy="-18" rx="45.34" ry="18"/>
<text text-anchor="middle" x="58" y="-15.5" font-family="Helvetica,sans-Serif" font-size="10.00">__end__</text>
</g>
<!-- validate_documents -->
<g id="node4" class="node">
<title>validate_documents</title>
<path fill="lightblue" stroke="black" d="M104,-166C104,-166 12,-166 12,-166 6,-166 0,-160 0,-154 0,-154 0,-142 0,-142 0,-136 6,-130 12,-130 12,-130 104,-130 104,-130 110,-130 116,-136 116,-142 116,-142 116,-154 116,-154 116,-160 110,-166 104,-166"/>
<text text-anchor="middle" x="58" y="-145.5" font-family="Helvetica,sans-Serif" font-size="10.00">validate_documents</text>
</g>
<!-- load_documents&#45;&gt;validate_documents -->
<g id="edge4" class="edge">
<title>load_documents&#45;&gt;validate_documents</title>
<path fill="none" stroke="black" d="M58,-194.89C58,-194.89 58,-176.01 58,-176.01"/>
<polygon fill="black" stroke="black" points="61.5,-176.01 58,-166.01 54.5,-176.01 61.5,-176.01"/>
</g>
<!-- process_documents -->
<g id="node5" class="node">
<title>process_documents</title>
<path fill="lightblue" stroke="black" d="M104,-101C104,-101 12,-101 12,-101 6,-101 0,-95 0,-89 0,-89 0,-77 0,-77 0,-71 6,-65 12,-65 12,-65 104,-65 104,-65 110,-65 116,-71 116,-77 116,-77 116,-89 116,-89 116,-95 110,-101 104,-101"/>
<text text-anchor="middle" x="58" y="-80.5" font-family="Helvetica,sans-Serif" font-size="10.00">process_documents</text>
</g>
<!-- validate_documents&#45;&gt;process_documents -->
<g id="edge2" class="edge">
<title>validate_documents&#45;&gt;process_documents</title>
<path fill="none" stroke="black" d="M58,-129.89C58,-129.89 58,-111.01 58,-111.01"/>
<polygon fill="black" stroke="black" points="61.5,-111.01 58,-101.01 54.5,-111.01 61.5,-111.01"/>
</g>
<!-- process_documents&#45;&gt;__end__ -->
<g id="edge1" class="edge">
<title>process_documents&#45;&gt;__end__</title>
<path fill="none" stroke="black" d="M58,-64.89C58,-64.89 58,-46.01 58,-46.01"/>
<polygon fill="black" stroke="black" points="61.5,-46.01 58,-36.01 54.5,-46.01 61.5,-46.01"/>
</g>
</g>
</svg>
