<?xml version="1.0" encoding="UTF-8"?>
<svg width="710.0" height="480.0" xmlns="http://www.w3.org/2000/svg" viewBox="0 0 710.0 480.0">
    <g transform="translate(0,0) scale(1,1) rotate(0,0,0) skewX(0) skewY(0)"><g transform="translate(0,0) scale(1,1) rotate(0,0,0) skewX(0) skewY(0)"><rect x="50.0" y="50.0" width="50.0" height="50.0" fill="none" fill-opacity="1.0" stroke="black" stroke-width="1.0" stroke-opacity="1.0" stroke-linecap="butt" transform="translate(0,0) scale(1,1) rotate(0,0,0) skewX(0) skewY(0)" /><text x="75.0" y="75.0" font-size="12.0" font-family="Arial" fill="black" text-anchor="middle" dominant-baseline="central" transform="translate(0,0) scale(1,1) rotate(0,0,0) skewX(0) skewY(0)">1</text></g><g transform="translate(0,0) scale(1,1) rotate(0,0,0) skewX(0) skewY(0)"><rect x="100.0" y="50.0" width="50.0" height="50.0" fill="none" fill-opacity="1.0" stroke="black" stroke-width="1.0" stroke-opacity="1.0" stroke-linecap="butt" transform="translate(0,0) scale(1,1) rotate(0,0,0) skewX(0) skewY(0)" /><text x="125.0" y="75.0" font-size="12.0" font-family="Arial" fill="black" text-anchor="middle" dominant-baseline="central" transform="translate(0,0) scale(1,1) rotate(0,0,0) skewX(0) skewY(0)">2</text></g><g transform="translate(0,0) scale(1,1) rotate(0,0,0) skewX(0) skewY(0)"><rect x="150.0" y="50.0" width="50.0" height="50.0" fill="none" fill-opacity="1.0" stroke="black" stroke-width="1.0" stroke-opacity="1.0" stroke-linecap="butt" transform="translate(0,0) scale(1,1) rotate(0,0,0) skewX(0) skewY(0)" /><text x="175.0" y="75.0" font-size="12.0" font-family="Arial" fill="black" text-anchor="middle" dominant-baseline="central" transform="translate(0,0) scale(1,1) rotate(0,0,0) skewX(0) skewY(0)">3</text></g><g transform="translate(0,0) scale(1,1) rotate(0,0,0) skewX(0) skewY(0)"><rect x="50.0" y="100.0" width="50.0" height="50.0" fill="none" fill-opacity="1.0" stroke="black" stroke-width="1.0" stroke-opacity="1.0" stroke-linecap="butt" transform="translate(0,0) scale(1,1) rotate(0,0,0) skewX(0) skewY(0)" /><text x="75.0" y="125.0" font-size="12.0" font-family="Arial" fill="black" text-anchor="middle" dominant-baseline="central" transform="translate(0,0) scale(1,1) rotate(0,0,0) skewX(0) skewY(0)">4</text></g><g transform="translate(0,0) scale(1,1) rotate(0,0,0) skewX(0) skewY(0)"><rect x="100.0" y="100.0" width="50.0" height="50.0" fill="none" fill-opacity="1.0" stroke="black" stroke-width="1.0" stroke-opacity="1.0" stroke-linecap="butt" transform="translate(0,0) scale(1,1) rotate(0,0,0) skewX(0) skewY(0)" /><text x="125.0" y="125.0" font-size="12.0" font-family="Arial" fill="black" text-anchor="middle" dominant-baseline="central" transform="translate(0,0) scale(1,1) rotate(0,0,0) skewX(0) skewY(0)">5</text></g><g transform="translate(0,0) scale(1,1) rotate(0,0,0) skewX(0) skewY(0)"><rect x="150.0" y="100.0" width="50.0" height="50.0" fill="none" fill-opacity="1.0" stroke="black" stroke-width="1.0" stroke-opacity="1.0" stroke-linecap="butt" transform="translate(0,0) scale(1,1) rotate(0,0,0) skewX(0) skewY(0)" /><text x="175.0" y="125.0" font-size="12.0" font-family="Arial" fill="black" text-anchor="middle" dominant-baseline="central" transform="translate(0,0) scale(1,1) rotate(0,0,0) skewX(0) skewY(0)">6</text></g><g transform="translate(0,0) scale(1,1) rotate(0,0,0) skewX(0) skewY(0)"><rect x="50.0" y="150.0" width="50.0" height="50.0" fill="none" fill-opacity="1.0" stroke="black" stroke-width="1.0" stroke-opacity="1.0" stroke-linecap="butt" transform="translate(0,0) scale(1,1) rotate(0,0,0) skewX(0) skewY(0)" /><text x="75.0" y="175.0" font-size="12.0" font-family="Arial" fill="black" text-anchor="middle" dominant-baseline="central" transform="translate(0,0) scale(1,1) rotate(0,0,0) skewX(0) skewY(0)">7</text></g><g transform="translate(0,0) scale(1,1) rotate(0,0,0) skewX(0) skewY(0)"><rect x="100.0" y="150.0" width="50.0" height="50.0" fill="none" fill-opacity="1.0" stroke="black" stroke-width="1.0" stroke-opacity="1.0" stroke-linecap="butt" transform="translate(0,0) scale(1,1) rotate(0,0,0) skewX(0) skewY(0)" /><text x="125.0" y="175.0" font-size="12.0" font-family="Arial" fill="black" text-anchor="middle" dominant-baseline="central" transform="translate(0,0) scale(1,1) rotate(0,0,0) skewX(0) skewY(0)">8</text></g><g transform="translate(0,0) scale(1,1) rotate(0,0,0) skewX(0) skewY(0)"><rect x="150.0" y="150.0" width="50.0" height="50.0" fill="none" fill-opacity="1.0" stroke="black" stroke-width="1.0" stroke-opacity="1.0" stroke-linecap="butt" transform="translate(0,0) scale(1,1) rotate(0,0,0) skewX(0) skewY(0)" /><text x="175.0" y="175.0" font-size="12.0" font-family="Arial" fill="black" text-anchor="middle" dominant-baseline="central" transform="translate(0,0) scale(1,1) rotate(0,0,0) skewX(0) skewY(0)">9</text></g></g>
    <g transform="translate(0,0) scale(1,1) rotate(0,0,0) skewX(0) skewY(0)"><g transform="translate(0,0) scale(1,1) rotate(0,0,0) skewX(0) skewY(0)"><rect x="250.0" y="50.0" width="60.0" height="60.0" fill="red" fill-opacity="1.0" stroke="darkred" stroke-width="2.0" stroke-opacity="1.0" stroke-linecap="butt" transform="translate(0,0) scale(1,1) rotate(0,0,0) skewX(0) skewY(0)" /><text x="280.0" y="80.0" font-size="18.0" font-family="Arial" fill="white" text-anchor="middle" dominant-baseline="central" transform="translate(0,0) scale(1,1) rotate(0,0,0) skewX(0) skewY(0)">R</text></g><g transform="translate(0,0) scale(1,1) rotate(0,0,0) skewX(0) skewY(0)"><rect x="310.0" y="50.0" width="60.0" height="60.0" fill="green" fill-opacity="1.0" stroke="darkgreen" stroke-width="2.0" stroke-opacity="1.0" stroke-linecap="butt" transform="translate(0,0) scale(1,1) rotate(0,0,0) skewX(0) skewY(0)" /><text x="340.0" y="80.0" font-size="18.0" font-family="Arial" fill="white" text-anchor="middle" dominant-baseline="central" transform="translate(0,0) scale(1,1) rotate(0,0,0) skewX(0) skewY(0)">G</text></g><g transform="translate(0,0) scale(1,1) rotate(0,0,0) skewX(0) skewY(0)"><rect x="370.0" y="50.0" width="60.0" height="60.0" fill="blue" fill-opacity="1.0" stroke="darkblue" stroke-width="2.0" stroke-opacity="1.0" stroke-linecap="butt" transform="translate(0,0) scale(1,1) rotate(0,0,0) skewX(0) skewY(0)" /><text x="400.0" y="80.0" font-size="18.0" font-family="Arial" fill="white" text-anchor="middle" dominant-baseline="central" transform="translate(0,0) scale(1,1) rotate(0,0,0) skewX(0) skewY(0)">B</text></g><g transform="translate(0,0) scale(1,1) rotate(0,0,0) skewX(0) skewY(0)"><rect x="250.0" y="110.0" width="60.0" height="60.0" fill="cyan" fill-opacity="1.0" stroke="darkcyan" stroke-width="2.0" stroke-opacity="1.0" stroke-linecap="butt" transform="translate(0,0) scale(1,1) rotate(0,0,0) skewX(0) skewY(0)" /><text x="280.0" y="140.0" font-size="18.0" font-family="Arial" fill="white" text-anchor="middle" dominant-baseline="central" transform="translate(0,0) scale(1,1) rotate(0,0,0) skewX(0) skewY(0)">C</text></g><g transform="translate(0,0) scale(1,1) rotate(0,0,0) skewX(0) skewY(0)"><rect x="310.0" y="110.0" width="60.0" height="60.0" fill="magenta" fill-opacity="1.0" stroke="darkmagenta" stroke-width="2.0" stroke-opacity="1.0" stroke-linecap="butt" transform="translate(0,0) scale(1,1) rotate(0,0,0) skewX(0) skewY(0)" /><text x="340.0" y="140.0" font-size="18.0" font-family="Arial" fill="white" text-anchor="middle" dominant-baseline="central" transform="translate(0,0) scale(1,1) rotate(0,0,0) skewX(0) skewY(0)">M</text></g><g transform="translate(0,0) scale(1,1) rotate(0,0,0) skewX(0) skewY(0)"><rect x="370.0" y="110.0" width="60.0" height="60.0" fill="yellow" fill-opacity="1.0" stroke="orange" stroke-width="2.0" stroke-opacity="1.0" stroke-linecap="butt" transform="translate(0,0) scale(1,1) rotate(0,0,0) skewX(0) skewY(0)" /><text x="400.0" y="140.0" font-size="18.0" font-family="Arial" fill="white" text-anchor="middle" dominant-baseline="central" transform="translate(0,0) scale(1,1) rotate(0,0,0) skewX(0) skewY(0)">Y</text></g></g>
    <g transform="translate(0,0) scale(1,1) rotate(0,0,0) skewX(0) skewY(0)"><g transform="translate(0,0) scale(1,1) rotate(0,0,0) skewX(0) skewY(0)"><rect x="500.0" y="50.0" width="50.0" height="50.0" fill="none" fill-opacity="1.0" stroke="black" stroke-width="1.0" stroke-opacity="1.0" stroke-linecap="butt" transform="translate(0,0) scale(1,1) rotate(0,0,0) skewX(0) skewY(0)" /><text x="525.0" y="75.0" font-size="20.0" font-family="Arial" fill="black" text-anchor="middle" dominant-baseline="central" transform="translate(0,0) scale(1,1) rotate(0,0,0) skewX(0) skewY(0)">●</text></g><g transform="translate(0,0) scale(1,1) rotate(0,0,0) skewX(0) skewY(0)"><rect x="550.0" y="50.0" width="50.0" height="50.0" fill="none" fill-opacity="1.0" stroke="black" stroke-width="1.0" stroke-opacity="1.0" stroke-linecap="butt" transform="translate(0,0) scale(1,1) rotate(0,0,0) skewX(0) skewY(0)" /><text x="575.0" y="75.0" font-size="20.0" font-family="Arial" fill="black" text-anchor="middle" dominant-baseline="central" transform="translate(0,0) scale(1,1) rotate(0,0,0) skewX(0) skewY(0)">○</text></g><g transform="translate(0,0) scale(1,1) rotate(0,0,0) skewX(0) skewY(0)"><rect x="600.0" y="50.0" width="50.0" height="50.0" fill="none" fill-opacity="1.0" stroke="black" stroke-width="1.0" stroke-opacity="1.0" stroke-linecap="butt" transform="translate(0,0) scale(1,1) rotate(0,0,0) skewX(0) skewY(0)" /><text x="625.0" y="75.0" font-size="20.0" font-family="Arial" fill="black" text-anchor="middle" dominant-baseline="central" transform="translate(0,0) scale(1,1) rotate(0,0,0) skewX(0) skewY(0)">●</text></g><g transform="translate(0,0) scale(1,1) rotate(0,0,0) skewX(0) skewY(0)"><rect x="500.0" y="100.0" width="50.0" height="50.0" fill="none" fill-opacity="1.0" stroke="black" stroke-width="1.0" stroke-opacity="1.0" stroke-linecap="butt" transform="translate(0,0) scale(1,1) rotate(0,0,0) skewX(0) skewY(0)" /><text x="525.0" y="125.0" font-size="20.0" font-family="Arial" fill="black" text-anchor="middle" dominant-baseline="central" transform="translate(0,0) scale(1,1) rotate(0,0,0) skewX(0) skewY(0)">○</text></g><g transform="translate(0,0) scale(1,1) rotate(0,0,0) skewX(0) skewY(0)"><rect x="550.0" y="100.0" width="50.0" height="50.0" fill="none" fill-opacity="1.0" stroke="black" stroke-width="1.0" stroke-opacity="1.0" stroke-linecap="butt" transform="translate(0,0) scale(1,1) rotate(0,0,0) skewX(0) skewY(0)" /><text x="575.0" y="125.0" font-size="20.0" font-family="Arial" fill="black" text-anchor="middle" dominant-baseline="central" transform="translate(0,0) scale(1,1) rotate(0,0,0) skewX(0) skewY(0)">●</text></g><g transform="translate(0,0) scale(1,1) rotate(0,0,0) skewX(0) skewY(0)"><rect x="600.0" y="100.0" width="50.0" height="50.0" fill="none" fill-opacity="1.0" stroke="black" stroke-width="1.0" stroke-opacity="1.0" stroke-linecap="butt" transform="translate(0,0) scale(1,1) rotate(0,0,0) skewX(0) skewY(0)" /><text x="625.0" y="125.0" font-size="20.0" font-family="Arial" fill="black" text-anchor="middle" dominant-baseline="central" transform="translate(0,0) scale(1,1) rotate(0,0,0) skewX(0) skewY(0)">○</text></g><g transform="translate(0,0) scale(1,1) rotate(0,0,0) skewX(0) skewY(0)"><rect x="500.0" y="150.0" width="50.0" height="50.0" fill="none" fill-opacity="1.0" stroke="black" stroke-width="1.0" stroke-opacity="1.0" stroke-linecap="butt" transform="translate(0,0) scale(1,1) rotate(0,0,0) skewX(0) skewY(0)" /><text x="525.0" y="175.0" font-size="20.0" font-family="Arial" fill="black" text-anchor="middle" dominant-baseline="central" transform="translate(0,0) scale(1,1) rotate(0,0,0) skewX(0) skewY(0)">●</text></g><g transform="translate(0,0) scale(1,1) rotate(0,0,0) skewX(0) skewY(0)"><rect x="550.0" y="150.0" width="50.0" height="50.0" fill="none" fill-opacity="1.0" stroke="black" stroke-width="1.0" stroke-opacity="1.0" stroke-linecap="butt" transform="translate(0,0) scale(1,1) rotate(0,0,0) skewX(0) skewY(0)" /><text x="575.0" y="175.0" font-size="20.0" font-family="Arial" fill="black" text-anchor="middle" dominant-baseline="central" transform="translate(0,0) scale(1,1) rotate(0,0,0) skewX(0) skewY(0)">○</text></g><g transform="translate(0,0) scale(1,1) rotate(0,0,0) skewX(0) skewY(0)"><rect x="600.0" y="150.0" width="50.0" height="50.0" fill="none" fill-opacity="1.0" stroke="black" stroke-width="1.0" stroke-opacity="1.0" stroke-linecap="butt" transform="translate(0,0) scale(1,1) rotate(0,0,0) skewX(0) skewY(0)" /><text x="625.0" y="175.0" font-size="20.0" font-family="Arial" fill="black" text-anchor="middle" dominant-baseline="central" transform="translate(0,0) scale(1,1) rotate(0,0,0) skewX(0) skewY(0)">●</text></g><text x="575.0" y="30.0" font-size="16.0" font-family="Arial" fill="navy" text-anchor="middle" dominant-baseline="central" transform="translate(0,0) scale(1,1) rotate(0,0,0) skewX(0) skewY(0)">Pattern Matrix</text></g>
    <g transform="translate(0,0) scale(1,1) rotate(0,0,0) skewX(0) skewY(0)"><g transform="translate(0,0) scale(1,1) rotate(0,0,0) skewX(0) skewY(0)"><rect x="50.0" y="250.0" width="70.0" height="70.0" fill="none" fill-opacity="1.0" stroke="black" stroke-width="1.0" stroke-opacity="1.0" stroke-linecap="butt" transform="translate(0,0) scale(1,1) rotate(0,0,0) skewX(0) skewY(0)" /><svg x="55.0" y="255.0" width="60.0" height="60.0" viewBox="0 0 60.0 60.0" transform="translate(0,0) scale(1,1) rotate(0,0,0) skewX(0) skewY(0)">code='<circle cx="20" cy="20" r="12" fill="red"/>'</svg></g><g transform="translate(0,0) scale(1,1) rotate(0,0,0) skewX(0) skewY(0)"><rect x="120.0" y="250.0" width="70.0" height="70.0" fill="none" fill-opacity="1.0" stroke="black" stroke-width="1.0" stroke-opacity="1.0" stroke-linecap="butt" transform="translate(0,0) scale(1,1) rotate(0,0,0) skewX(0) skewY(0)" /><svg x="125.0" y="255.0" width="60.0" height="60.0" viewBox="0 0 60.0 60.0" transform="translate(0,0) scale(1,1) rotate(0,0,0) skewX(0) skewY(0)">code='<polygon points="20,8 8,32 32,32" fill="blue"/>'</svg></g><g transform="translate(0,0) scale(1,1) rotate(0,0,0) skewX(0) skewY(0)"><rect x="50.0" y="320.0" width="70.0" height="70.0" fill="none" fill-opacity="1.0" stroke="black" stroke-width="1.0" stroke-opacity="1.0" stroke-linecap="butt" transform="translate(0,0) scale(1,1) rotate(0,0,0) skewX(0) skewY(0)" /><text x="85.0" y="355.0" font-size="12.0" font-family="Arial" fill="black" text-anchor="middle" dominant-baseline="central" transform="translate(0,0) scale(1,1) rotate(0,0,0) skewX(0) skewY(0)">Circle</text></g><g transform="translate(0,0) scale(1,1) rotate(0,0,0) skewX(0) skewY(0)"><rect x="120.0" y="320.0" width="70.0" height="70.0" fill="none" fill-opacity="1.0" stroke="black" stroke-width="1.0" stroke-opacity="1.0" stroke-linecap="butt" transform="translate(0,0) scale(1,1) rotate(0,0,0) skewX(0) skewY(0)" /><text x="155.0" y="355.0" font-size="12.0" font-family="Arial" fill="black" text-anchor="middle" dominant-baseline="central" transform="translate(0,0) scale(1,1) rotate(0,0,0) skewX(0) skewY(0)">Triangle</text></g></g>
    <g transform="translate(0,0) scale(1,1) rotate(0,0,0) skewX(0) skewY(0)"><g transform="translate(0,0) scale(1,1) rotate(0,0,0) skewX(0) skewY(0)"><rect x="250.0" y="250.0" width="40.0" height="40.0" fill="lightblue" fill-opacity="1.0" stroke="blue" stroke-width="1.0" stroke-opacity="1.0" stroke-linecap="butt" transform="translate(0,0) scale(1,1) rotate(0,0,0) skewX(0) skewY(0)" /><text x="270.0" y="270.0" font-size="14.0" font-family="Arial" fill="black" text-anchor="middle" dominant-baseline="central" transform="translate(0,0) scale(1,1) rotate(0,0,0) skewX(0) skewY(0)">1</text></g><g transform="translate(0,0) scale(1,1) rotate(0,0,0) skewX(0) skewY(0)"><rect x="290.0" y="250.0" width="40.0" height="40.0" fill="lightblue" fill-opacity="1.0" stroke="blue" stroke-width="1.0" stroke-opacity="1.0" stroke-linecap="butt" transform="translate(0,0) scale(1,1) rotate(0,0,0) skewX(0) skewY(0)" /><text x="310.0" y="270.0" font-size="14.0" font-family="Arial" fill="black" text-anchor="middle" dominant-baseline="central" transform="translate(0,0) scale(1,1) rotate(0,0,0) skewX(0) skewY(0)">2</text></g><g transform="translate(0,0) scale(1,1) rotate(0,0,0) skewX(0) skewY(0)"><rect x="330.0" y="250.0" width="40.0" height="40.0" fill="lightblue" fill-opacity="1.0" stroke="blue" stroke-width="1.0" stroke-opacity="1.0" stroke-linecap="butt" transform="translate(0,0) scale(1,1) rotate(0,0,0) skewX(0) skewY(0)" /><text x="350.0" y="270.0" font-size="14.0" font-family="Arial" fill="black" text-anchor="middle" dominant-baseline="central" transform="translate(0,0) scale(1,1) rotate(0,0,0) skewX(0) skewY(0)">3</text></g><g transform="translate(0,0) scale(1,1) rotate(0,0,0) skewX(0) skewY(0)"><rect x="370.0" y="250.0" width="40.0" height="40.0" fill="lightblue" fill-opacity="1.0" stroke="blue" stroke-width="1.0" stroke-opacity="1.0" stroke-linecap="butt" transform="translate(0,0) scale(1,1) rotate(0,0,0) skewX(0) skewY(0)" /><text x="390.0" y="270.0" font-size="14.0" font-family="Arial" fill="black" text-anchor="middle" dominant-baseline="central" transform="translate(0,0) scale(1,1) rotate(0,0,0) skewX(0) skewY(0)">4</text></g><g transform="translate(0,0) scale(1,1) rotate(0,0,0) skewX(0) skewY(0)"><rect x="410.0" y="250.0" width="40.0" height="40.0" fill="lightblue" fill-opacity="1.0" stroke="blue" stroke-width="1.0" stroke-opacity="1.0" stroke-linecap="butt" transform="translate(0,0) scale(1,1) rotate(0,0,0) skewX(0) skewY(0)" /><text x="430.0" y="270.0" font-size="14.0" font-family="Arial" fill="black" text-anchor="middle" dominant-baseline="central" transform="translate(0,0) scale(1,1) rotate(0,0,0) skewX(0) skewY(0)">5</text></g><g transform="translate(0,0) scale(1,1) rotate(0,0,0) skewX(0) skewY(0)"><rect x="250.0" y="290.0" width="40.0" height="40.0" fill="lightblue" fill-opacity="1.0" stroke="blue" stroke-width="1.0" stroke-opacity="1.0" stroke-linecap="butt" transform="translate(0,0) scale(1,1) rotate(0,0,0) skewX(0) skewY(0)" /><text x="270.0" y="310.0" font-size="14.0" font-family="Arial" fill="black" text-anchor="middle" dominant-baseline="central" transform="translate(0,0) scale(1,1) rotate(0,0,0) skewX(0) skewY(0)">6</text></g><g transform="translate(0,0) scale(1,1) rotate(0,0,0) skewX(0) skewY(0)"><rect x="290.0" y="290.0" width="40.0" height="40.0" fill="lightblue" fill-opacity="1.0" stroke="blue" stroke-width="1.0" stroke-opacity="1.0" stroke-linecap="butt" transform="translate(0,0) scale(1,1) rotate(0,0,0) skewX(0) skewY(0)" /><text x="310.0" y="310.0" font-size="14.0" font-family="Arial" fill="black" text-anchor="middle" dominant-baseline="central" transform="translate(0,0) scale(1,1) rotate(0,0,0) skewX(0) skewY(0)">7</text></g><g transform="translate(0,0) scale(1,1) rotate(0,0,0) skewX(0) skewY(0)"><rect x="330.0" y="290.0" width="40.0" height="40.0" fill="lightblue" fill-opacity="1.0" stroke="blue" stroke-width="1.0" stroke-opacity="1.0" stroke-linecap="butt" transform="translate(0,0) scale(1,1) rotate(0,0,0) skewX(0) skewY(0)" /><text x="350.0" y="310.0" font-size="14.0" font-family="Arial" fill="black" text-anchor="middle" dominant-baseline="central" transform="translate(0,0) scale(1,1) rotate(0,0,0) skewX(0) skewY(0)">8</text></g><g transform="translate(0,0) scale(1,1) rotate(0,0,0) skewX(0) skewY(0)"><rect x="370.0" y="290.0" width="40.0" height="40.0" fill="lightblue" fill-opacity="1.0" stroke="blue" stroke-width="1.0" stroke-opacity="1.0" stroke-linecap="butt" transform="translate(0,0) scale(1,1) rotate(0,0,0) skewX(0) skewY(0)" /><text x="390.0" y="310.0" font-size="14.0" font-family="Arial" fill="black" text-anchor="middle" dominant-baseline="central" transform="translate(0,0) scale(1,1) rotate(0,0,0) skewX(0) skewY(0)">9</text></g><g transform="translate(0,0) scale(1,1) rotate(0,0,0) skewX(0) skewY(0)"><rect x="410.0" y="290.0" width="40.0" height="40.0" fill="lightblue" fill-opacity="1.0" stroke="blue" stroke-width="1.0" stroke-opacity="1.0" stroke-linecap="butt" transform="translate(0,0) scale(1,1) rotate(0,0,0) skewX(0) skewY(0)" /><text x="430.0" y="310.0" font-size="14.0" font-family="Arial" fill="black" text-anchor="middle" dominant-baseline="central" transform="translate(0,0) scale(1,1) rotate(0,0,0) skewX(0) skewY(0)">10</text></g><g transform="translate(0,0) scale(1,1) rotate(0,0,0) skewX(0) skewY(0)"><rect x="250.0" y="330.0" width="40.0" height="40.0" fill="lightblue" fill-opacity="1.0" stroke="blue" stroke-width="1.0" stroke-opacity="1.0" stroke-linecap="butt" transform="translate(0,0) scale(1,1) rotate(0,0,0) skewX(0) skewY(0)" /><text x="270.0" y="350.0" font-size="14.0" font-family="Arial" fill="black" text-anchor="middle" dominant-baseline="central" transform="translate(0,0) scale(1,1) rotate(0,0,0) skewX(0) skewY(0)">11</text></g><g transform="translate(0,0) scale(1,1) rotate(0,0,0) skewX(0) skewY(0)"><rect x="290.0" y="330.0" width="40.0" height="40.0" fill="lightblue" fill-opacity="1.0" stroke="blue" stroke-width="1.0" stroke-opacity="1.0" stroke-linecap="butt" transform="translate(0,0) scale(1,1) rotate(0,0,0) skewX(0) skewY(0)" /><text x="310.0" y="350.0" font-size="14.0" font-family="Arial" fill="black" text-anchor="middle" dominant-baseline="central" transform="translate(0,0) scale(1,1) rotate(0,0,0) skewX(0) skewY(0)">12</text></g><g transform="translate(0,0) scale(1,1) rotate(0,0,0) skewX(0) skewY(0)"><rect x="330.0" y="330.0" width="40.0" height="40.0" fill="lightblue" fill-opacity="1.0" stroke="blue" stroke-width="1.0" stroke-opacity="1.0" stroke-linecap="butt" transform="translate(0,0) scale(1,1) rotate(0,0,0) skewX(0) skewY(0)" /><text x="350.0" y="350.0" font-size="14.0" font-family="Arial" fill="black" text-anchor="middle" dominant-baseline="central" transform="translate(0,0) scale(1,1) rotate(0,0,0) skewX(0) skewY(0)">13</text></g><g transform="translate(0,0) scale(1,1) rotate(0,0,0) skewX(0) skewY(0)"><rect x="370.0" y="330.0" width="40.0" height="40.0" fill="lightblue" fill-opacity="1.0" stroke="blue" stroke-width="1.0" stroke-opacity="1.0" stroke-linecap="butt" transform="translate(0,0) scale(1,1) rotate(0,0,0) skewX(0) skewY(0)" /><text x="390.0" y="350.0" font-size="14.0" font-family="Arial" fill="black" text-anchor="middle" dominant-baseline="central" transform="translate(0,0) scale(1,1) rotate(0,0,0) skewX(0) skewY(0)">14</text></g><g transform="translate(0,0) scale(1,1) rotate(0,0,0) skewX(0) skewY(0)"><rect x="410.0" y="330.0" width="40.0" height="40.0" fill="lightblue" fill-opacity="1.0" stroke="blue" stroke-width="1.0" stroke-opacity="1.0" stroke-linecap="butt" transform="translate(0,0) scale(1,1) rotate(0,0,0) skewX(0) skewY(0)" /><text x="430.0" y="350.0" font-size="14.0" font-family="Arial" fill="black" text-anchor="middle" dominant-baseline="central" transform="translate(0,0) scale(1,1) rotate(0,0,0) skewX(0) skewY(0)">15</text></g><g transform="translate(0,0) scale(1,1) rotate(0,0,0) skewX(0) skewY(0)"><rect x="250.0" y="370.0" width="40.0" height="40.0" fill="lightblue" fill-opacity="1.0" stroke="blue" stroke-width="1.0" stroke-opacity="1.0" stroke-linecap="butt" transform="translate(0,0) scale(1,1) rotate(0,0,0) skewX(0) skewY(0)" /><text x="270.0" y="390.0" font-size="14.0" font-family="Arial" fill="black" text-anchor="middle" dominant-baseline="central" transform="translate(0,0) scale(1,1) rotate(0,0,0) skewX(0) skewY(0)">16</text></g><g transform="translate(0,0) scale(1,1) rotate(0,0,0) skewX(0) skewY(0)"><rect x="290.0" y="370.0" width="40.0" height="40.0" fill="lightblue" fill-opacity="1.0" stroke="blue" stroke-width="1.0" stroke-opacity="1.0" stroke-linecap="butt" transform="translate(0,0) scale(1,1) rotate(0,0,0) skewX(0) skewY(0)" /><text x="310.0" y="390.0" font-size="14.0" font-family="Arial" fill="black" text-anchor="middle" dominant-baseline="central" transform="translate(0,0) scale(1,1) rotate(0,0,0) skewX(0) skewY(0)">17</text></g><g transform="translate(0,0) scale(1,1) rotate(0,0,0) skewX(0) skewY(0)"><rect x="330.0" y="370.0" width="40.0" height="40.0" fill="lightblue" fill-opacity="1.0" stroke="blue" stroke-width="1.0" stroke-opacity="1.0" stroke-linecap="butt" transform="translate(0,0) scale(1,1) rotate(0,0,0) skewX(0) skewY(0)" /><text x="350.0" y="390.0" font-size="14.0" font-family="Arial" fill="black" text-anchor="middle" dominant-baseline="central" transform="translate(0,0) scale(1,1) rotate(0,0,0) skewX(0) skewY(0)">18</text></g><g transform="translate(0,0) scale(1,1) rotate(0,0,0) skewX(0) skewY(0)"><rect x="370.0" y="370.0" width="40.0" height="40.0" fill="lightblue" fill-opacity="1.0" stroke="blue" stroke-width="1.0" stroke-opacity="1.0" stroke-linecap="butt" transform="translate(0,0) scale(1,1) rotate(0,0,0) skewX(0) skewY(0)" /><text x="390.0" y="390.0" font-size="14.0" font-family="Arial" fill="black" text-anchor="middle" dominant-baseline="central" transform="translate(0,0) scale(1,1) rotate(0,0,0) skewX(0) skewY(0)">19</text></g><g transform="translate(0,0) scale(1,1) rotate(0,0,0) skewX(0) skewY(0)"><rect x="410.0" y="370.0" width="40.0" height="40.0" fill="lightblue" fill-opacity="1.0" stroke="blue" stroke-width="1.0" stroke-opacity="1.0" stroke-linecap="butt" transform="translate(0,0) scale(1,1) rotate(0,0,0) skewX(0) skewY(0)" /><text x="430.0" y="390.0" font-size="14.0" font-family="Arial" fill="black" text-anchor="middle" dominant-baseline="central" transform="translate(0,0) scale(1,1) rotate(0,0,0) skewX(0) skewY(0)">20</text></g></g>
    <g transform="translate(0,0) scale(1,1) rotate(0,0,0) skewX(0) skewY(0)"><g transform="translate(0,0) scale(1,1) rotate(0,0,0) skewX(0) skewY(0)"><rect x="500.0" y="250.0" width="40.0" height="40.0" fill="black" fill-opacity="1.0" stroke="gray" stroke-width="1.0" stroke-opacity="1.0" stroke-linecap="butt" transform="translate(0,0) scale(1,1) rotate(0,0,0) skewX(0) skewY(0)" /><text x="520.0" y="270.0" font-size="12.0" font-family="Arial" fill="black" text-anchor="middle" dominant-baseline="central" transform="translate(0,0) scale(1,1) rotate(0,0,0) skewX(0) skewY(0)"> </text></g><g transform="translate(0,0) scale(1,1) rotate(0,0,0) skewX(0) skewY(0)"><rect x="540.0" y="250.0" width="40.0" height="40.0" fill="white" fill-opacity="1.0" stroke="black" stroke-width="1.0" stroke-opacity="1.0" stroke-linecap="butt" transform="translate(0,0) scale(1,1) rotate(0,0,0) skewX(0) skewY(0)" /><text x="560.0" y="270.0" font-size="12.0" font-family="Arial" fill="black" text-anchor="middle" dominant-baseline="central" transform="translate(0,0) scale(1,1) rotate(0,0,0) skewX(0) skewY(0)"> </text></g><g transform="translate(0,0) scale(1,1) rotate(0,0,0) skewX(0) skewY(0)"><rect x="580.0" y="250.0" width="40.0" height="40.0" fill="black" fill-opacity="1.0" stroke="gray" stroke-width="1.0" stroke-opacity="1.0" stroke-linecap="butt" transform="translate(0,0) scale(1,1) rotate(0,0,0) skewX(0) skewY(0)" /><text x="600.0" y="270.0" font-size="12.0" font-family="Arial" fill="black" text-anchor="middle" dominant-baseline="central" transform="translate(0,0) scale(1,1) rotate(0,0,0) skewX(0) skewY(0)"> </text></g><g transform="translate(0,0) scale(1,1) rotate(0,0,0) skewX(0) skewY(0)"><rect x="620.0" y="250.0" width="40.0" height="40.0" fill="white" fill-opacity="1.0" stroke="black" stroke-width="1.0" stroke-opacity="1.0" stroke-linecap="butt" transform="translate(0,0) scale(1,1) rotate(0,0,0) skewX(0) skewY(0)" /><text x="640.0" y="270.0" font-size="12.0" font-family="Arial" fill="black" text-anchor="middle" dominant-baseline="central" transform="translate(0,0) scale(1,1) rotate(0,0,0) skewX(0) skewY(0)"> </text></g><g transform="translate(0,0) scale(1,1) rotate(0,0,0) skewX(0) skewY(0)"><rect x="660.0" y="250.0" width="40.0" height="40.0" fill="black" fill-opacity="1.0" stroke="gray" stroke-width="1.0" stroke-opacity="1.0" stroke-linecap="butt" transform="translate(0,0) scale(1,1) rotate(0,0,0) skewX(0) skewY(0)" /><text x="680.0" y="270.0" font-size="12.0" font-family="Arial" fill="black" text-anchor="middle" dominant-baseline="central" transform="translate(0,0) scale(1,1) rotate(0,0,0) skewX(0) skewY(0)"> </text></g><g transform="translate(0,0) scale(1,1) rotate(0,0,0) skewX(0) skewY(0)"><rect x="500.0" y="290.0" width="40.0" height="40.0" fill="white" fill-opacity="1.0" stroke="black" stroke-width="1.0" stroke-opacity="1.0" stroke-linecap="butt" transform="translate(0,0) scale(1,1) rotate(0,0,0) skewX(0) skewY(0)" /><text x="520.0" y="310.0" font-size="12.0" font-family="Arial" fill="black" text-anchor="middle" dominant-baseline="central" transform="translate(0,0) scale(1,1) rotate(0,0,0) skewX(0) skewY(0)"> </text></g><g transform="translate(0,0) scale(1,1) rotate(0,0,0) skewX(0) skewY(0)"><rect x="540.0" y="290.0" width="40.0" height="40.0" fill="black" fill-opacity="1.0" stroke="gray" stroke-width="1.0" stroke-opacity="1.0" stroke-linecap="butt" transform="translate(0,0) scale(1,1) rotate(0,0,0) skewX(0) skewY(0)" /><text x="560.0" y="310.0" font-size="12.0" font-family="Arial" fill="black" text-anchor="middle" dominant-baseline="central" transform="translate(0,0) scale(1,1) rotate(0,0,0) skewX(0) skewY(0)"> </text></g><g transform="translate(0,0) scale(1,1) rotate(0,0,0) skewX(0) skewY(0)"><rect x="580.0" y="290.0" width="40.0" height="40.0" fill="white" fill-opacity="1.0" stroke="black" stroke-width="1.0" stroke-opacity="1.0" stroke-linecap="butt" transform="translate(0,0) scale(1,1) rotate(0,0,0) skewX(0) skewY(0)" /><text x="600.0" y="310.0" font-size="12.0" font-family="Arial" fill="black" text-anchor="middle" dominant-baseline="central" transform="translate(0,0) scale(1,1) rotate(0,0,0) skewX(0) skewY(0)"> </text></g><g transform="translate(0,0) scale(1,1) rotate(0,0,0) skewX(0) skewY(0)"><rect x="620.0" y="290.0" width="40.0" height="40.0" fill="black" fill-opacity="1.0" stroke="gray" stroke-width="1.0" stroke-opacity="1.0" stroke-linecap="butt" transform="translate(0,0) scale(1,1) rotate(0,0,0) skewX(0) skewY(0)" /><text x="640.0" y="310.0" font-size="12.0" font-family="Arial" fill="black" text-anchor="middle" dominant-baseline="central" transform="translate(0,0) scale(1,1) rotate(0,0,0) skewX(0) skewY(0)"> </text></g><g transform="translate(0,0) scale(1,1) rotate(0,0,0) skewX(0) skewY(0)"><rect x="660.0" y="290.0" width="40.0" height="40.0" fill="white" fill-opacity="1.0" stroke="black" stroke-width="1.0" stroke-opacity="1.0" stroke-linecap="butt" transform="translate(0,0) scale(1,1) rotate(0,0,0) skewX(0) skewY(0)" /><text x="680.0" y="310.0" font-size="12.0" font-family="Arial" fill="black" text-anchor="middle" dominant-baseline="central" transform="translate(0,0) scale(1,1) rotate(0,0,0) skewX(0) skewY(0)"> </text></g><g transform="translate(0,0) scale(1,1) rotate(0,0,0) skewX(0) skewY(0)"><rect x="500.0" y="330.0" width="40.0" height="40.0" fill="black" fill-opacity="1.0" stroke="gray" stroke-width="1.0" stroke-opacity="1.0" stroke-linecap="butt" transform="translate(0,0) scale(1,1) rotate(0,0,0) skewX(0) skewY(0)" /><text x="520.0" y="350.0" font-size="12.0" font-family="Arial" fill="black" text-anchor="middle" dominant-baseline="central" transform="translate(0,0) scale(1,1) rotate(0,0,0) skewX(0) skewY(0)"> </text></g><g transform="translate(0,0) scale(1,1) rotate(0,0,0) skewX(0) skewY(0)"><rect x="540.0" y="330.0" width="40.0" height="40.0" fill="white" fill-opacity="1.0" stroke="black" stroke-width="1.0" stroke-opacity="1.0" stroke-linecap="butt" transform="translate(0,0) scale(1,1) rotate(0,0,0) skewX(0) skewY(0)" /><text x="560.0" y="350.0" font-size="12.0" font-family="Arial" fill="black" text-anchor="middle" dominant-baseline="central" transform="translate(0,0) scale(1,1) rotate(0,0,0) skewX(0) skewY(0)"> </text></g><g transform="translate(0,0) scale(1,1) rotate(0,0,0) skewX(0) skewY(0)"><rect x="580.0" y="330.0" width="40.0" height="40.0" fill="black" fill-opacity="1.0" stroke="gray" stroke-width="1.0" stroke-opacity="1.0" stroke-linecap="butt" transform="translate(0,0) scale(1,1) rotate(0,0,0) skewX(0) skewY(0)" /><text x="600.0" y="350.0" font-size="12.0" font-family="Arial" fill="black" text-anchor="middle" dominant-baseline="central" transform="translate(0,0) scale(1,1) rotate(0,0,0) skewX(0) skewY(0)"> </text></g><g transform="translate(0,0) scale(1,1) rotate(0,0,0) skewX(0) skewY(0)"><rect x="620.0" y="330.0" width="40.0" height="40.0" fill="white" fill-opacity="1.0" stroke="black" stroke-width="1.0" stroke-opacity="1.0" stroke-linecap="butt" transform="translate(0,0) scale(1,1) rotate(0,0,0) skewX(0) skewY(0)" /><text x="640.0" y="350.0" font-size="12.0" font-family="Arial" fill="black" text-anchor="middle" dominant-baseline="central" transform="translate(0,0) scale(1,1) rotate(0,0,0) skewX(0) skewY(0)"> </text></g><g transform="translate(0,0) scale(1,1) rotate(0,0,0) skewX(0) skewY(0)"><rect x="660.0" y="330.0" width="40.0" height="40.0" fill="black" fill-opacity="1.0" stroke="gray" stroke-width="1.0" stroke-opacity="1.0" stroke-linecap="butt" transform="translate(0,0) scale(1,1) rotate(0,0,0) skewX(0) skewY(0)" /><text x="680.0" y="350.0" font-size="12.0" font-family="Arial" fill="black" text-anchor="middle" dominant-baseline="central" transform="translate(0,0) scale(1,1) rotate(0,0,0) skewX(0) skewY(0)"> </text></g><g transform="translate(0,0) scale(1,1) rotate(0,0,0) skewX(0) skewY(0)"><rect x="500.0" y="370.0" width="40.0" height="40.0" fill="white" fill-opacity="1.0" stroke="black" stroke-width="1.0" stroke-opacity="1.0" stroke-linecap="butt" transform="translate(0,0) scale(1,1) rotate(0,0,0) skewX(0) skewY(0)" /><text x="520.0" y="390.0" font-size="12.0" font-family="Arial" fill="black" text-anchor="middle" dominant-baseline="central" transform="translate(0,0) scale(1,1) rotate(0,0,0) skewX(0) skewY(0)"> </text></g><g transform="translate(0,0) scale(1,1) rotate(0,0,0) skewX(0) skewY(0)"><rect x="540.0" y="370.0" width="40.0" height="40.0" fill="black" fill-opacity="1.0" stroke="gray" stroke-width="1.0" stroke-opacity="1.0" stroke-linecap="butt" transform="translate(0,0) scale(1,1) rotate(0,0,0) skewX(0) skewY(0)" /><text x="560.0" y="390.0" font-size="12.0" font-family="Arial" fill="black" text-anchor="middle" dominant-baseline="central" transform="translate(0,0) scale(1,1) rotate(0,0,0) skewX(0) skewY(0)"> </text></g><g transform="translate(0,0) scale(1,1) rotate(0,0,0) skewX(0) skewY(0)"><rect x="580.0" y="370.0" width="40.0" height="40.0" fill="white" fill-opacity="1.0" stroke="black" stroke-width="1.0" stroke-opacity="1.0" stroke-linecap="butt" transform="translate(0,0) scale(1,1) rotate(0,0,0) skewX(0) skewY(0)" /><text x="600.0" y="390.0" font-size="12.0" font-family="Arial" fill="black" text-anchor="middle" dominant-baseline="central" transform="translate(0,0) scale(1,1) rotate(0,0,0) skewX(0) skewY(0)"> </text></g><g transform="translate(0,0) scale(1,1) rotate(0,0,0) skewX(0) skewY(0)"><rect x="620.0" y="370.0" width="40.0" height="40.0" fill="black" fill-opacity="1.0" stroke="gray" stroke-width="1.0" stroke-opacity="1.0" stroke-linecap="butt" transform="translate(0,0) scale(1,1) rotate(0,0,0) skewX(0) skewY(0)" /><text x="640.0" y="390.0" font-size="12.0" font-family="Arial" fill="black" text-anchor="middle" dominant-baseline="central" transform="translate(0,0) scale(1,1) rotate(0,0,0) skewX(0) skewY(0)"> </text></g><g transform="translate(0,0) scale(1,1) rotate(0,0,0) skewX(0) skewY(0)"><rect x="660.0" y="370.0" width="40.0" height="40.0" fill="white" fill-opacity="1.0" stroke="black" stroke-width="1.0" stroke-opacity="1.0" stroke-linecap="butt" transform="translate(0,0) scale(1,1) rotate(0,0,0) skewX(0) skewY(0)" /><text x="680.0" y="390.0" font-size="12.0" font-family="Arial" fill="black" text-anchor="middle" dominant-baseline="central" transform="translate(0,0) scale(1,1) rotate(0,0,0) skewX(0) skewY(0)"> </text></g><g transform="translate(0,0) scale(1,1) rotate(0,0,0) skewX(0) skewY(0)"><rect x="500.0" y="410.0" width="40.0" height="40.0" fill="black" fill-opacity="1.0" stroke="gray" stroke-width="1.0" stroke-opacity="1.0" stroke-linecap="butt" transform="translate(0,0) scale(1,1) rotate(0,0,0) skewX(0) skewY(0)" /><text x="520.0" y="430.0" font-size="12.0" font-family="Arial" fill="black" text-anchor="middle" dominant-baseline="central" transform="translate(0,0) scale(1,1) rotate(0,0,0) skewX(0) skewY(0)"> </text></g><g transform="translate(0,0) scale(1,1) rotate(0,0,0) skewX(0) skewY(0)"><rect x="540.0" y="410.0" width="40.0" height="40.0" fill="white" fill-opacity="1.0" stroke="black" stroke-width="1.0" stroke-opacity="1.0" stroke-linecap="butt" transform="translate(0,0) scale(1,1) rotate(0,0,0) skewX(0) skewY(0)" /><text x="560.0" y="430.0" font-size="12.0" font-family="Arial" fill="black" text-anchor="middle" dominant-baseline="central" transform="translate(0,0) scale(1,1) rotate(0,0,0) skewX(0) skewY(0)"> </text></g><g transform="translate(0,0) scale(1,1) rotate(0,0,0) skewX(0) skewY(0)"><rect x="580.0" y="410.0" width="40.0" height="40.0" fill="black" fill-opacity="1.0" stroke="gray" stroke-width="1.0" stroke-opacity="1.0" stroke-linecap="butt" transform="translate(0,0) scale(1,1) rotate(0,0,0) skewX(0) skewY(0)" /><text x="600.0" y="430.0" font-size="12.0" font-family="Arial" fill="black" text-anchor="middle" dominant-baseline="central" transform="translate(0,0) scale(1,1) rotate(0,0,0) skewX(0) skewY(0)"> </text></g><g transform="translate(0,0) scale(1,1) rotate(0,0,0) skewX(0) skewY(0)"><rect x="620.0" y="410.0" width="40.0" height="40.0" fill="white" fill-opacity="1.0" stroke="black" stroke-width="1.0" stroke-opacity="1.0" stroke-linecap="butt" transform="translate(0,0) scale(1,1) rotate(0,0,0) skewX(0) skewY(0)" /><text x="640.0" y="430.0" font-size="12.0" font-family="Arial" fill="black" text-anchor="middle" dominant-baseline="central" transform="translate(0,0) scale(1,1) rotate(0,0,0) skewX(0) skewY(0)"> </text></g><g transform="translate(0,0) scale(1,1) rotate(0,0,0) skewX(0) skewY(0)"><rect x="660.0" y="410.0" width="40.0" height="40.0" fill="black" fill-opacity="1.0" stroke="gray" stroke-width="1.0" stroke-opacity="1.0" stroke-linecap="butt" transform="translate(0,0) scale(1,1) rotate(0,0,0) skewX(0) skewY(0)" /><text x="680.0" y="430.0" font-size="12.0" font-family="Arial" fill="black" text-anchor="middle" dominant-baseline="central" transform="translate(0,0) scale(1,1) rotate(0,0,0) skewX(0) skewY(0)"> </text></g><text x="600.0" y="470.0" font-size="18.0" font-family="Arial" fill="darkgreen" text-anchor="middle" dominant-baseline="central" transform="translate(0,0) scale(1,1) rotate(0,0,0) skewX(0) skewY(0)">Checkerboard Pattern</text></g>
</svg>
