<?xml version="1.0" encoding="UTF-8"?>
<svg width="512.0" height="120.0" viewBox="0 0 512.0 120.0" xmlns="http://www.w3.org/2000/svg" xmlns:xlink="http://www.w3.org/1999/xlink">
    <text x="0" y="0" font-size="20.0" font-family="Arial" text-anchor="middle" dominant-baseline="central" fill="gray" transform="translate(70,100) scale(1,1) rotate(0,0,0) skewX(0) skewY(0)">Basic</text>
    <text x="0" y="0" font-size="20.0" font-family="Arial" text-anchor="middle" dominant-baseline="central" fill="gray" transform="translate(200,100) scale(1,1) rotate(0,0,0) skewX(0) skewY(0)">Text</text>
    <text x="0" y="0" font-size="20.0" font-family="Arial" text-anchor="middle" dominant-baseline="central" fill="gray" transform="translate(330,100) scale(1,1) rotate(0,0,0) skewX(0) skewY(0)">Rounded</text>
    <text x="0" y="0" font-size="20.0" font-family="Arial" text-anchor="middle" dominant-baseline="central" fill="gray" transform="translate(450,100) scale(1,1) rotate(0,0,0) skewX(0) skewY(0)">Rotated</text>
    <g transform="translate(20.0,25.0) scale(1,1) rotate(0,0,0) skewX(0) skewY(0)"><rect x="0.0" y="0.0" width="100.0" height="50.0" fill="lightgray" fill-opacity="1.0" stroke="black" stroke-width="1.0" stroke-opacity="1.0" stroke-linecap="butt" transform="translate(0,0) scale(1,1) rotate(0,0,0) skewX(0) skewY(0)" /><text x="0" y="0" font-size="12" font-family="Arial" text-anchor="middle" dominant-baseline="central" fill="black" transform="translate(50.0,25.0) scale(1,1) rotate(0,0,0) skewX(0) skewY(0)"></text></g>
    <g transform="translate(140.0,25.0) scale(1,1) rotate(0,0,0) skewX(0) skewY(0)"><rect x="0.0" y="0.0" width="120.0" height="50.0" fill="lightblue" fill-opacity="1.0" stroke="blue" stroke-width="1.0" stroke-opacity="1.0" stroke-linecap="butt" transform="translate(0,0) scale(1,1) rotate(0,0,0) skewX(0) skewY(0)" /><text x="0" y="0" font-size="14.0" font-family="Arial" text-anchor="middle" dominant-baseline="central" fill="black" transform="translate(60.0,25.0) scale(1,1) rotate(0,0,0) skewX(0) skewY(0)">Text Cell</text></g>
    <g transform="translate(280.0,25.0) scale(1,1) rotate(0,0,0) skewX(0) skewY(0)"><rect x="0.0" y="0.0" width="100.0" height="50.0" rx="15.0" ry="15.0" fill="lightgreen" fill-opacity="1.0" stroke="green" stroke-width="1.0" stroke-opacity="1.0" stroke-linecap="butt" transform="translate(0,0) scale(1,1) rotate(0,0,0) skewX(0) skewY(0)" /><text x="0" y="0" font-size="12" font-family="Arial" text-anchor="middle" dominant-baseline="central" fill="black" transform="translate(50.0,25.0) scale(1,1) rotate(0,0,0) skewX(0) skewY(0)">Rounded</text></g>
    <g transform="translate(400.0,25.0) scale(1,1) rotate(15,50.0,25.0) skewX(0) skewY(0)"><rect x="0.0" y="0.0" width="100.0" height="50.0" fill="lightcoral" fill-opacity="1.0" stroke="red" stroke-width="1.0" stroke-opacity="1.0" stroke-linecap="butt" transform="translate(0,0) scale(1,1) rotate(0,0,0) skewX(0) skewY(0)" /><text x="0" y="0" font-size="12" font-family="Arial" text-anchor="middle" dominant-baseline="central" fill="black" transform="translate(50.0,25.0) scale(1,1) rotate(0,0,0) skewX(0) skewY(0)">Rotated</text></g>
</svg>
