<?xml version="1.0" encoding="UTF-8" standalone="no"?>
<!DOCTYPE svg PUBLIC "-//W3C//DTD SVG 1.1//EN"
 "http://www.w3.org/Graphics/SVG/1.1/DTD/svg11.dtd">
<!-- Generated by graphviz version 2.50.0 (0)
 -->
<!-- Pages: 1 -->
<svg width="221pt" height="483pt"
 viewBox="21.60 21.60 199.60 461.60" xmlns="http://www.w3.org/2000/svg" xmlns:xlink="http://www.w3.org/1999/xlink">
<g id="graph0" class="graph" transform="scale(1 1) rotate(0) translate(25.6 457.6)">
<polygon fill="white" stroke="transparent" points="-4,4 -4,-436 174,-436 174,4 -4,4"/>
<g id="clust1" class="cluster">
<title>cluster_repeat_003</title>
<path fill="none" stroke="#666666" stroke-dasharray="5,2" d="M20,-122C20,-122 150,-122 150,-122 156,-122 162,-128 162,-134 162,-134 162,-181 162,-181 162,-187 156,-193 150,-193 150,-193 20,-193 20,-193 14,-193 8,-187 8,-181 8,-181 8,-134 8,-134 8,-128 14,-122 20,-122"/>
<text text-anchor="middle" x="131" y="-181" font-family="Helvetica,sans-Serif" font-size="10.00" fill="#666666">3x Parallel</text>
</g>
<!-- repeating_process_batch -->
<g id="node1" class="node">
<title>repeating_process_batch</title>
<path fill="lightblue" stroke="black" d="M141.5,-166C141.5,-166 28.5,-166 28.5,-166 22.5,-166 16.5,-160 16.5,-154 16.5,-154 16.5,-142 16.5,-142 16.5,-136 22.5,-130 28.5,-130 28.5,-130 141.5,-130 141.5,-130 147.5,-130 153.5,-136 153.5,-142 153.5,-142 153.5,-154 153.5,-154 153.5,-160 147.5,-166 141.5,-166"/>
<text text-anchor="middle" x="85" y="-145.5" font-family="Helvetica,sans-Serif" font-size="10.00">repeating_process_batch</text>
</g>
<!-- conclude_documents -->
<g id="node7" class="node">
<title>conclude_documents</title>
<path fill="lightblue" stroke="black" d="M133.5,-101C133.5,-101 36.5,-101 36.5,-101 30.5,-101 24.5,-95 24.5,-89 24.5,-89 24.5,-77 24.5,-77 24.5,-71 30.5,-65 36.5,-65 36.5,-65 133.5,-65 133.5,-65 139.5,-65 145.5,-71 145.5,-77 145.5,-77 145.5,-89 145.5,-89 145.5,-95 139.5,-101 133.5,-101"/>
<text text-anchor="middle" x="85" y="-80.5" font-family="Helvetica,sans-Serif" font-size="10.00">conclude_documents</text>
</g>
<!-- repeating_process_batch&#45;&gt;conclude_documents -->
<g id="edge3" class="edge">
<title>repeating_process_batch&#45;&gt;conclude_documents</title>
<path fill="none" stroke="#666666" stroke-dasharray="5,2" d="M85,-129.89C85,-129.89 85,-111.01 85,-111.01"/>
<polygon fill="#666666" stroke="#666666" points="88.5,-111.01 85,-101.01 81.5,-111.01 88.5,-111.01"/>
</g>
<!-- __start__ -->
<g id="node2" class="node">
<title>__start__</title>
<ellipse fill="#f4e8e8" stroke="black" cx="85" cy="-414" rx="47.89" ry="18"/>
<text text-anchor="middle" x="85" y="-411.5" font-family="Helvetica,sans-Serif" font-size="10.00">__start__</text>
</g>
<!-- load_documents -->
<g id="node4" class="node">
<title>load_documents</title>
<path fill="lightblue" stroke="black" d="M123,-367C123,-367 47,-367 47,-367 41,-367 35,-361 35,-355 35,-355 35,-343 35,-343 35,-337 41,-331 47,-331 47,-331 123,-331 123,-331 129,-331 135,-337 135,-343 135,-343 135,-355 135,-355 135,-361 129,-367 123,-367"/>
<text text-anchor="middle" x="85" y="-346.5" font-family="Helvetica,sans-Serif" font-size="10.00">load_documents</text>
</g>
<!-- __start__&#45;&gt;load_documents -->
<g id="edge6" class="edge">
<title>__start__&#45;&gt;load_documents</title>
<path fill="none" stroke="black" d="M85,-395.89C85,-395.89 85,-377.01 85,-377.01"/>
<polygon fill="black" stroke="black" points="88.5,-377.01 85,-367.01 81.5,-377.01 88.5,-377.01"/>
</g>
<!-- __end__ -->
<g id="node3" class="node">
<title>__end__</title>
<ellipse fill="#f4e8e8" stroke="black" cx="85" cy="-18" rx="45.34" ry="18"/>
<text text-anchor="middle" x="85" y="-15.5" font-family="Helvetica,sans-Serif" font-size="10.00">__end__</text>
</g>
<!-- validate_documents -->
<g id="node5" class="node">
<title>validate_documents</title>
<path fill="lightblue" stroke="black" d="M131,-302C131,-302 39,-302 39,-302 33,-302 27,-296 27,-290 27,-290 27,-278 27,-278 27,-272 33,-266 39,-266 39,-266 131,-266 131,-266 137,-266 143,-272 143,-278 143,-278 143,-290 143,-290 143,-296 137,-302 131,-302"/>
<text text-anchor="middle" x="85" y="-281.5" font-family="Helvetica,sans-Serif" font-size="10.00">validate_documents</text>
</g>
<!-- load_documents&#45;&gt;validate_documents -->
<g id="edge4" class="edge">
<title>load_documents&#45;&gt;validate_documents</title>
<path fill="none" stroke="black" d="M85,-330.89C85,-330.89 85,-312.01 85,-312.01"/>
<polygon fill="black" stroke="black" points="88.5,-312.01 85,-302.01 81.5,-312.01 88.5,-312.01"/>
</g>
<!-- process_documents -->
<g id="node6" class="node">
<title>process_documents</title>
<path fill="lightblue" stroke="black" d="M131,-237C131,-237 39,-237 39,-237 33,-237 27,-231 27,-225 27,-225 27,-213 27,-213 27,-207 33,-201 39,-201 39,-201 131,-201 131,-201 137,-201 143,-207 143,-213 143,-213 143,-225 143,-225 143,-231 137,-237 131,-237"/>
<text text-anchor="middle" x="85" y="-216.5" font-family="Helvetica,sans-Serif" font-size="10.00">process_documents</text>
</g>
<!-- validate_documents&#45;&gt;process_documents -->
<g id="edge2" class="edge">
<title>validate_documents&#45;&gt;process_documents</title>
<path fill="none" stroke="black" d="M85,-265.89C85,-265.89 85,-247.01 85,-247.01"/>
<polygon fill="black" stroke="black" points="88.5,-247.01 85,-237.01 81.5,-247.01 88.5,-247.01"/>
</g>
<!-- process_documents&#45;&gt;repeating_process_batch -->
<g id="edge5" class="edge">
<title>process_documents&#45;&gt;repeating_process_batch</title>
<path fill="none" stroke="black" d="M85,-200.72C85,-200.72 85,-176.47 85,-176.47"/>
<polygon fill="black" stroke="black" points="88.5,-176.47 85,-166.47 81.5,-176.47 88.5,-176.47"/>
</g>
<!-- conclude_documents&#45;&gt;__end__ -->
<g id="edge1" class="edge">
<title>conclude_documents&#45;&gt;__end__</title>
<path fill="none" stroke="black" d="M85,-64.89C85,-64.89 85,-46.01 85,-46.01"/>
<polygon fill="black" stroke="black" points="88.5,-46.01 85,-36.01 81.5,-46.01 88.5,-46.01"/>
</g>
</g>
</svg>
