<?xml version="1.0" encoding="UTF-8" standalone="no"?>
<!DOCTYPE svg PUBLIC "-//W3C//DTD SVG 1.1//EN"
 "http://www.w3.org/Graphics/SVG/1.1/DTD/svg11.dtd">
<!-- Generated by graphviz version 2.50.0 (0)
 -->
<!-- Pages: 1 -->
<svg width="365pt" height="430pt"
 viewBox="21.60 21.60 343.10 408.60" xmlns="http://www.w3.org/2000/svg" xmlns:xlink="http://www.w3.org/1999/xlink">
<g id="graph0" class="graph" transform="scale(1 1) rotate(0) translate(25.6 404.6)">
<polygon fill="white" stroke="transparent" points="-4,4 -4,-383 317.5,-383 317.5,4 -4,4"/>
<g id="clust1" class="cluster">
<title>cluster_validation_subgraph</title>
<path fill="#444444" fill-opacity="0.133333" stroke="#aaaaaa" d="M20,-110C20,-110 146,-110 146,-110 152,-110 158,-116 158,-122 158,-122 158,-258 158,-258 158,-264 152,-270 146,-270 146,-270 20,-270 20,-270 14,-270 8,-264 8,-258 8,-258 8,-122 8,-122 8,-116 14,-110 20,-110"/>
<text text-anchor="middle" x="83" y="-258" font-family="Helvetica,sans-Serif" font-size="10.00" fill="#444444">Subgraph: validation_subgraph</text>
</g>
<!-- validation_subgraph_verify_content -->
<g id="node1" class="node">
<title>validation_subgraph_verify_content</title>
<path fill="lightblue" stroke="black" d="M126,-166C126,-166 60,-166 60,-166 54,-166 48,-160 48,-154 48,-154 48,-142 48,-142 48,-136 54,-130 60,-130 60,-130 126,-130 126,-130 132,-130 138,-136 138,-142 138,-142 138,-154 138,-154 138,-160 132,-166 126,-166"/>
<text text-anchor="middle" x="93" y="-145.5" font-family="Helvetica,sans-Serif" font-size="10.00">verify_content</text>
</g>
<!-- conclude_documents -->
<g id="node7" class="node">
<title>conclude_documents</title>
<path fill="lightblue" stroke="black" d="M203.5,-101C203.5,-101 106.5,-101 106.5,-101 100.5,-101 94.5,-95 94.5,-89 94.5,-89 94.5,-77 94.5,-77 94.5,-71 100.5,-65 106.5,-65 106.5,-65 203.5,-65 203.5,-65 209.5,-65 215.5,-71 215.5,-77 215.5,-77 215.5,-89 215.5,-89 215.5,-95 209.5,-101 203.5,-101"/>
<text text-anchor="middle" x="155" y="-80.5" font-family="Helvetica,sans-Serif" font-size="10.00">conclude_documents</text>
</g>
<!-- validation_subgraph_verify_content&#45;&gt;conclude_documents -->
<g id="edge6" class="edge">
<title>validation_subgraph_verify_content&#45;&gt;conclude_documents</title>
<path fill="none" stroke="black" d="M116.25,-129.89C116.25,-129.89 116.25,-111.01 116.25,-111.01"/>
<polygon fill="black" stroke="black" points="119.75,-111.01 116.25,-101.01 112.75,-111.01 119.75,-111.01"/>
</g>
<!-- validation_subgraph_check_format -->
<g id="node2" class="node">
<title>validation_subgraph_check_format</title>
<path fill="lightblue" stroke="black" d="M125,-231C125,-231 61,-231 61,-231 55,-231 49,-225 49,-219 49,-219 49,-207 49,-207 49,-201 55,-195 61,-195 61,-195 125,-195 125,-195 131,-195 137,-201 137,-207 137,-207 137,-219 137,-219 137,-225 131,-231 125,-231"/>
<text text-anchor="middle" x="93" y="-210.5" font-family="Helvetica,sans-Serif" font-size="10.00">check_format</text>
</g>
<!-- validation_subgraph_check_format&#45;&gt;validation_subgraph_verify_content -->
<g id="edge7" class="edge">
<title>validation_subgraph_check_format&#45;&gt;validation_subgraph_verify_content</title>
<path fill="none" stroke="black" d="M93,-194.89C93,-194.89 93,-176.01 93,-176.01"/>
<polygon fill="black" stroke="black" points="96.5,-176.01 93,-166.01 89.5,-176.01 96.5,-176.01"/>
</g>
<!-- __start__ -->
<g id="node3" class="node">
<title>__start__</title>
<ellipse fill="#f4e8e8" stroke="black" cx="169" cy="-361" rx="47.89" ry="18"/>
<text text-anchor="middle" x="169" y="-358.5" font-family="Helvetica,sans-Serif" font-size="10.00">__start__</text>
</g>
<!-- load_documents -->
<g id="node5" class="node">
<title>load_documents</title>
<path fill="lightblue" stroke="black" d="M207,-314C207,-314 131,-314 131,-314 125,-314 119,-308 119,-302 119,-302 119,-290 119,-290 119,-284 125,-278 131,-278 131,-278 207,-278 207,-278 213,-278 219,-284 219,-290 219,-290 219,-302 219,-302 219,-308 213,-314 207,-314"/>
<text text-anchor="middle" x="169" y="-293.5" font-family="Helvetica,sans-Serif" font-size="10.00">load_documents</text>
</g>
<!-- __start__&#45;&gt;load_documents -->
<g id="edge1" class="edge">
<title>__start__&#45;&gt;load_documents</title>
<path fill="none" stroke="black" d="M169,-342.89C169,-342.89 169,-324.01 169,-324.01"/>
<polygon fill="black" stroke="black" points="172.5,-324.01 169,-314.01 165.5,-324.01 172.5,-324.01"/>
</g>
<!-- __end__ -->
<g id="node4" class="node">
<title>__end__</title>
<ellipse fill="#f4e8e8" stroke="black" cx="155" cy="-18" rx="45.34" ry="18"/>
<text text-anchor="middle" x="155" y="-15.5" font-family="Helvetica,sans-Serif" font-size="10.00">__end__</text>
</g>
<!-- load_documents&#45;&gt;validation_subgraph_check_format -->
<g id="edge5" class="edge">
<title>load_documents&#45;&gt;validation_subgraph_check_format</title>
<path fill="none" stroke="black" d="M128,-277.99C128,-277.99 128,-241.26 128,-241.26"/>
<polygon fill="black" stroke="black" points="131.5,-241.26 128,-231.26 124.5,-241.26 131.5,-241.26"/>
</g>
<!-- pre_process_documents -->
<g id="node6" class="node">
<title>pre_process_documents</title>
<path fill="lightblue" stroke="black" d="M301.5,-231C301.5,-231 190.5,-231 190.5,-231 184.5,-231 178.5,-225 178.5,-219 178.5,-219 178.5,-207 178.5,-207 178.5,-201 184.5,-195 190.5,-195 190.5,-195 301.5,-195 301.5,-195 307.5,-195 313.5,-201 313.5,-207 313.5,-207 313.5,-219 313.5,-219 313.5,-225 307.5,-231 301.5,-231"/>
<text text-anchor="middle" x="246" y="-210.5" font-family="Helvetica,sans-Serif" font-size="10.00">pre_process_documents</text>
</g>
<!-- load_documents&#45;&gt;pre_process_documents -->
<g id="edge3" class="edge">
<title>load_documents&#45;&gt;pre_process_documents</title>
<path fill="none" stroke="black" d="M198.75,-277.99C198.75,-277.99 198.75,-241.26 198.75,-241.26"/>
<polygon fill="black" stroke="black" points="202.25,-241.26 198.75,-231.26 195.25,-241.26 202.25,-241.26"/>
</g>
<!-- pre_process_documents&#45;&gt;conclude_documents -->
<g id="edge4" class="edge">
<title>pre_process_documents&#45;&gt;conclude_documents</title>
<path fill="none" stroke="black" d="M197,-194.92C197,-194.92 197,-111.34 197,-111.34"/>
<polygon fill="black" stroke="black" points="200.5,-111.34 197,-101.34 193.5,-111.34 200.5,-111.34"/>
</g>
<!-- conclude_documents&#45;&gt;__end__ -->
<g id="edge2" class="edge">
<title>conclude_documents&#45;&gt;__end__</title>
<path fill="none" stroke="black" d="M155,-64.89C155,-64.89 155,-46.01 155,-46.01"/>
<polygon fill="black" stroke="black" points="158.5,-46.01 155,-36.01 151.5,-46.01 158.5,-46.01"/>
</g>
</g>
</svg>
