<?xml version="1.0" encoding="UTF-8"?>
<svg width="660.0" height="410.0" xmlns="http://www.w3.org/2000/svg" viewBox="0 0 660.0 410.0">
    <ellipse cx="0" cy="0" rx="40.0" ry="25.0" fill="lightgray" fill-opacity="1.0" stroke="black" stroke-width="2.0" stroke-opacity="1.0" stroke-linecap="butt" transform="translate(80,80) scale(1,1) rotate(0,0,0) skewX(0) skewY(0)" />
    <ellipse cx="0" cy="0" rx="45.0" ry="30.0" fill="lightblue" fill-opacity="1.0" stroke="navy" stroke-width="3.0" stroke-opacity="1.0" stroke-linecap="butt" transform="translate(200,80) scale(1,1) rotate(0,0,0) skewX(0) skewY(0)" />
    <ellipse cx="0" cy="0" rx="25.0" ry="50.0" fill="lightgreen" fill-opacity="1.0" stroke="green" stroke-width="2.0" stroke-opacity="1.0" stroke-linecap="butt" transform="translate(350,80) scale(1,1) rotate(0,0,0) skewX(0) skewY(0)" />
    <ellipse cx="0" cy="0" rx="35.0" ry="35.0" fill="lightcoral" fill-opacity="1.0" stroke="red" stroke-width="2.0" stroke-opacity="1.0" stroke-linecap="butt" transform="translate(480,80) scale(1,1) rotate(0,0,0) skewX(0) skewY(0)" />
    <ellipse cx="0" cy="0" rx="60.0" ry="15.0" fill="lightyellow" fill-opacity="1.0" stroke="orange" stroke-width="2.0" stroke-opacity="1.0" stroke-linecap="butt" transform="translate(600,80) scale(1,1) rotate(0,0,0) skewX(0) skewY(0)" />
    <ellipse cx="0" cy="0" rx="50.0" ry="35.0" fill="lightpink" fill-opacity="0.6" stroke="deeppink" stroke-width="2.0" stroke-opacity="1.0" stroke-linecap="butt" transform="translate(80,200) scale(1,1) rotate(0,0,0) skewX(0) skewY(0)" />
    <ellipse cx="0" cy="0" rx="45.0" ry="25.0" fill="lavender" fill-opacity="1.0" stroke="purple" stroke-width="3.0" stroke-opacity="1.0" stroke-dasharray="12.0,6.0" stroke-linecap="butt" transform="translate(200,200) scale(1,1) rotate(0,0,0) skewX(0) skewY(0)" />
    <ellipse cx="0" cy="0" rx="40.0" ry="30.0" fill="none" fill-opacity="1.0" stroke="teal" stroke-width="4.0" stroke-opacity="1.0" stroke-linecap="butt" transform="translate(350,200) scale(1,1) rotate(0,0,0) skewX(0) skewY(0)" />
    <ellipse cx="0" cy="0" rx="50.0" ry="20.0" fill="gold" fill-opacity="1.0" stroke="darkorange" stroke-width="2.0" stroke-opacity="1.0" stroke-linecap="butt" transform="translate(480,200) scale(1,1) rotate(45,0,0) skewX(0) skewY(0)" />
    <ellipse cx="0" cy="0" rx="25.0" ry="25.0" fill="lightsteelblue" fill-opacity="1.0" stroke="steelblue" stroke-width="2.0" stroke-opacity="1.0" stroke-linecap="butt" transform="translate(600,200) scale(2.0,1.2) rotate(0,0,0) skewX(0) skewY(0)" />
    <ellipse cx="0" cy="0" rx="60.0" ry="15.0" fill="pink" fill-opacity="0.7" stroke="hotpink" stroke-width="1.0" stroke-opacity="1.0" stroke-linecap="butt" transform="translate(150,350) scale(1,1) rotate(0,0,0) skewX(0) skewY(0)" />
    <ellipse cx="0" cy="0" rx="60.0" ry="15.0" fill="pink" fill-opacity="0.7" stroke="hotpink" stroke-width="1.0" stroke-opacity="1.0" stroke-linecap="butt" transform="translate(150,350) scale(1,1) rotate(30,0,0) skewX(0) skewY(0)" />
    <ellipse cx="0" cy="0" rx="60.0" ry="15.0" fill="pink" fill-opacity="0.7" stroke="hotpink" stroke-width="1.0" stroke-opacity="1.0" stroke-linecap="butt" transform="translate(150,350) scale(1,1) rotate(60,0,0) skewX(0) skewY(0)" />
    <ellipse cx="0" cy="0" rx="60.0" ry="15.0" fill="pink" fill-opacity="0.7" stroke="hotpink" stroke-width="1.0" stroke-opacity="1.0" stroke-linecap="butt" transform="translate(150,350) scale(1,1) rotate(90,0,0) skewX(0) skewY(0)" />
    <ellipse cx="0" cy="0" rx="60.0" ry="15.0" fill="pink" fill-opacity="0.7" stroke="hotpink" stroke-width="1.0" stroke-opacity="1.0" stroke-linecap="butt" transform="translate(150,350) scale(1,1) rotate(120,0,0) skewX(0) skewY(0)" />
    <ellipse cx="0" cy="0" rx="60.0" ry="15.0" fill="pink" fill-opacity="0.7" stroke="hotpink" stroke-width="1.0" stroke-opacity="1.0" stroke-linecap="butt" transform="translate(150,350) scale(1,1) rotate(150,0,0) skewX(0) skewY(0)" />
    <ellipse cx="0" cy="0" rx="15.0" ry="15.0" fill="yellow" fill-opacity="1.0" stroke="orange" stroke-width="2.0" stroke-opacity="1.0" stroke-linecap="butt" transform="translate(150,350) scale(1,1) rotate(0,0,0) skewX(0) skewY(0)" />
    <ellipse cx="0" cy="0" rx="80.0" ry="50.0" fill="lightcyan" fill-opacity="1.0" stroke="cyan" stroke-width="2.0" stroke-opacity="1.0" stroke-linecap="butt" transform="translate(400,350) scale(1,1) rotate(0,0,0) skewX(0) skewY(0)" />
    <ellipse cx="0" cy="0" rx="60.0" ry="37.0" fill="lightblue" fill-opacity="1.0" stroke="blue" stroke-width="2.0" stroke-opacity="1.0" stroke-linecap="butt" transform="translate(400,350) scale(1,1) rotate(0,0,0) skewX(0) skewY(0)" />
    <ellipse cx="0" cy="0" rx="40.0" ry="25.0" fill="lightsteelblue" fill-opacity="1.0" stroke="steelblue" stroke-width="2.0" stroke-opacity="1.0" stroke-linecap="butt" transform="translate(400,350) scale(1,1) rotate(0,0,0) skewX(0) skewY(0)" />
    <ellipse cx="0" cy="0" rx="20.0" ry="12.0" fill="white" fill-opacity="1.0" stroke="navy" stroke-width="1.0" stroke-opacity="1.0" stroke-linecap="butt" transform="translate(400,350) scale(1,1) rotate(0,0,0) skewX(0) skewY(0)" />
    <ellipse cx="0" cy="0" rx="30.0" ry="15.0" fill="lightseagreen" fill-opacity="1.0" stroke="seagreen" stroke-width="2.0" stroke-opacity="1.0" stroke-linecap="butt" transform="translate(550,320) scale(1,1) rotate(0,0,0) skewX(0) skewY(0)" />
    <ellipse cx="0" cy="0" rx="30.0" ry="15.0" fill="lightseagreen" fill-opacity="1.0" stroke="seagreen" stroke-width="2.0" stroke-opacity="1.0" stroke-linecap="butt" transform="translate(600,350) scale(1,1) rotate(0,0,0) skewX(0) skewY(0)" />
    <ellipse cx="0" cy="0" rx="30.0" ry="15.0" fill="lightseagreen" fill-opacity="1.0" stroke="seagreen" stroke-width="2.0" stroke-opacity="1.0" stroke-linecap="butt" transform="translate(550,380) scale(1,1) rotate(0,0,0) skewX(0) skewY(0)" />
    <ellipse cx="0" cy="0" rx="30.0" ry="15.0" fill="lightseagreen" fill-opacity="1.0" stroke="seagreen" stroke-width="2.0" stroke-opacity="1.0" stroke-linecap="butt" transform="translate(500,350) scale(1,1) rotate(0,0,0) skewX(0) skewY(0)" />
</svg>
