<svg id="svg" version="1.1" xmlns="http://www.w3.org/2000/svg" xmlns:xlink="http://www.w3.org/1999/xlink" width="400" height="400" viewBox="0 0 400 400" style="transform:translate(-50%, -50%) scale(0.16) translate(50%, 50%)">
    <g id="svgg">
        <path id="path0" d="M185.743 1.408 C 182.584 1.688,178.752 2.105,177.228 2.335 C 175.703 2.565,172.861 2.942,170.912 3.172 C 168.963 3.402,166.111 3.844,164.575 4.156 C 163.039 4.467,160.178 4.993,158.218 5.325 C 151.983 6.381,143.861 8.471,139.124 10.238 C 137.428 10.871,133.723 12.146,130.891 13.071 C 125.336 14.885,124.654 15.167,117.319 18.670 C 114.647 19.946,112.387 20.990,112.298 20.990 C 111.176 20.990,92.006 31.821,89.703 33.756 C 89.485 33.939,88.562 34.572,87.652 35.163 C 86.742 35.754,84.603 37.226,82.900 38.434 C 81.196 39.641,78.869 41.289,77.729 42.095 C 76.590 42.901,75.342 43.817,74.957 44.131 C 74.572 44.444,73.010 45.708,71.485 46.940 C 62.151 54.480,49.606 67.354,42.574 76.611 C 40.614 79.192,38.282 82.213,37.392 83.325 C 35.376 85.842,31.772 91.101,30.440 93.465 C 29.889 94.446,28.185 97.386,26.656 100.000 C 22.530 107.049,17.391 117.237,15.468 122.178 C 14.536 124.574,13.437 127.290,13.025 128.214 C 12.614 129.137,12.277 130.018,12.277 130.172 C 12.277 130.325,11.496 132.510,10.540 135.027 C 9.585 137.545,8.584 140.406,8.316 141.386 C 7.839 143.130,7.669 143.717,6.823 146.535 C 6.327 148.184,4.957 154.168,4.373 157.228 C 4.145 158.426,3.692 160.773,3.368 162.444 C 3.044 164.115,2.583 166.788,2.345 168.385 C 2.107 169.981,1.746 172.356,1.542 173.663 C 0.481 180.471,0.272 184.148,0.279 195.842 C 0.287 208.090,0.713 217.398,1.529 223.168 C 2.320 228.764,2.806 231.923,3.143 233.663 C 3.767 236.880,6.238 246.844,7.515 251.287 C 8.203 253.683,9.012 256.624,9.312 257.822 C 9.612 259.020,10.326 261.248,10.899 262.772 C 11.471 264.297,12.084 265.990,12.260 266.535 C 12.832 268.296,14.985 273.533,16.021 275.681 C 16.576 276.831,17.030 277.927,17.030 278.117 C 17.030 278.307,18.455 281.337,20.198 284.850 C 22.113 288.710,23.366 291.726,23.366 292.471 C 23.366 293.409,23.775 294.094,25.072 295.330 C 26.010 296.224,27.163 297.551,27.635 298.279 C 34.075 308.225,40.259 317.080,43.241 320.627 C 50.179 328.880,55.824 335.072,59.960 338.966 C 61.027 339.970,62.277 341.149,62.738 341.584 C 63.199 342.020,64.910 343.535,66.540 344.950 C 68.170 346.366,69.698 347.703,69.935 347.921 C 70.455 348.398,74.477 351.687,78.041 354.549 C 80.656 356.649,87.449 361.191,96.690 367.016 C 101.760 370.213,113.237 376.251,117.228 377.820 C 118.426 378.291,120.564 379.214,121.980 379.871 C 124.409 380.999,126.832 381.962,131.881 383.810 C 134.945 384.931,148.002 388.650,152.487 389.679 C 154.550 390.152,157.218 390.816,158.416 391.154 C 160.595 391.768,161.571 391.960,167.129 392.860 C 177.134 394.482,186.382 395.050,202.772 395.049 C 213.949 395.048,217.229 394.921,220.792 394.346 C 223.188 393.960,226.396 393.465,227.921 393.247 C 230.863 392.826,234.177 392.278,237.426 391.676 C 238.515 391.474,240.921 391.028,242.772 390.685 C 246.406 390.012,247.253 389.815,252.079 388.519 C 253.822 388.051,255.782 387.525,256.436 387.350 C 257.089 387.176,258.960 386.550,260.594 385.961 C 262.228 385.371,264.455 384.618,265.545 384.286 C 269.030 383.226,279.492 379.250,281.584 378.190 C 282.347 377.803,285.287 376.363,288.119 374.989 C 296.434 370.955,313.063 361.365,314.059 360.029 C 314.168 359.883,314.881 359.335,315.644 358.812 C 316.406 358.288,317.119 357.754,317.228 357.624 C 317.337 357.494,318.922 356.341,320.750 355.062 C 332.307 346.978,351.925 327.741,358.685 317.864 C 359.596 316.534,361.067 314.554,361.954 313.465 C 363.507 311.560,371.089 300.449,371.089 300.079 C 371.089 299.918,372.061 298.121,375.845 291.287 C 378.849 285.860,385.347 272.225,385.347 271.346 C 385.347 271.156,385.883 269.698,386.540 268.107 C 387.196 266.515,388.286 263.595,388.962 261.616 C 389.638 259.638,390.376 257.668,390.603 257.237 C 390.830 256.807,391.165 255.871,391.349 255.158 C 391.533 254.445,391.861 253.238,392.079 252.475 C 393.035 249.130,393.240 248.373,393.846 245.941 C 394.199 244.525,394.645 242.743,394.838 241.980 C 395.288 240.200,395.909 236.925,396.415 233.663 C 396.634 232.248,396.982 230.020,397.187 228.713 C 397.393 227.406,397.763 224.822,398.010 222.970 C 398.257 221.119,398.624 218.446,398.825 217.030 C 399.421 212.849,399.548 206.799,399.054 206.198 C 398.812 205.904,397.545 205.251,396.238 204.747 C 394.931 204.243,393.683 203.711,393.465 203.564 C 392.887 203.175,388.994 201.755,386.931 201.181 C 383.202 200.143,382.348 199.888,381.425 199.534 C 379.997 198.988,379.904 199.313,379.645 205.743 C 379.513 209.010,379.245 212.842,379.048 214.257 C 378.852 215.673,378.505 218.436,378.279 220.396 C 377.787 224.652,375.281 238.329,374.410 241.508 C 374.071 242.748,373.646 244.297,373.466 244.950 C 371.818 250.944,368.969 258.942,366.096 265.644 C 364.749 268.786,364.418 269.588,363.931 270.891 C 362.255 275.371,351.989 293.373,349.604 296.015 C 349.223 296.438,348.911 296.936,348.911 297.122 C 348.911 297.542,345.305 302.876,344.289 303.960 C 343.881 304.396,342.685 305.822,341.631 307.129 C 334.597 315.850,327.273 323.742,322.477 327.766 C 321.006 329.001,319.000 330.753,318.020 331.661 C 314.917 334.533,304.862 342.322,301.980 344.087 C 300.455 345.020,297.813 346.666,296.108 347.744 C 294.403 348.821,292.915 349.703,292.803 349.703 C 292.690 349.703,292.124 350.035,291.546 350.441 C 290.592 351.111,283.592 354.994,278.614 357.615 C 277.525 358.188,274.941 359.331,272.871 360.154 C 270.802 360.978,268.574 361.883,267.921 362.165 C 267.267 362.448,266.109 362.899,265.347 363.168 C 264.584 363.436,263.069 364.056,261.980 364.545 C 258.772 365.985,249.094 369.037,244.554 370.040 C 220.516 375.353,205.684 376.515,185.724 374.648 C 183.427 374.433,180.545 374.257,179.319 374.257 C 178.093 374.257,176.230 374.090,175.179 373.885 C 174.127 373.681,172.020 373.319,170.495 373.081 C 165.246 372.263,157.221 370.459,152.079 368.940 C 151.099 368.651,149.495 368.194,148.515 367.926 C 147.535 367.657,145.218 366.948,143.366 366.351 C 141.515 365.754,138.931 364.951,137.624 364.567 C 134.558 363.665,129.090 361.363,122.376 358.146 C 119.436 356.738,116.584 355.376,116.040 355.119 C 109.507 352.046,93.966 341.861,85.545 335.135 C 81.313 331.755,68.949 319.831,64.797 315.126 L 62.069 312.035 61.749 308.988 C 60.746 299.436,61.534 265.274,62.961 256.436 C 63.207 254.911,63.584 252.416,63.798 250.891 C 64.200 248.029,64.662 244.984,65.344 240.693 C 66.815 231.433,69.246 220.249,70.661 216.238 C 71.006 215.257,72.619 210.446,74.244 205.545 C 77.580 195.484,79.858 190.069,85.738 178.218 C 88.495 172.662,90.459 169.025,91.546 167.464 C 91.948 166.885,92.277 166.299,92.277 166.161 C 92.277 165.824,96.830 159.068,97.527 158.371 C 97.830 158.068,98.941 156.573,99.995 155.049 C 106.140 146.161,124.208 128.713,127.265 128.713 C 127.363 128.713,128.576 128.033,129.960 127.202 C 133.105 125.313,137.578 123.168,138.372 123.168 C 138.702 123.168,139.382 123.008,139.882 122.812 C 156.598 116.257,185.019 121.972,198.355 134.570 C 205.998 141.791,217.507 166.733,213.196 166.733 C 212.523 166.733,206.571 168.129,203.960 168.899 C 202.980 169.188,200.842 169.731,199.208 170.105 C 196.266 170.779,185.457 174.249,183.168 175.254 C 182.515 175.541,180.822 176.159,179.406 176.627 C 177.990 177.095,176.431 177.644,175.941 177.848 C 175.450 178.051,174.649 178.372,174.158 178.561 C 172.939 179.030,171.611 179.582,169.505 180.496 C 168.525 180.921,166.921 181.603,165.941 182.011 C 162.843 183.300,145.227 192.333,143.960 193.282 C 143.743 193.445,142.896 193.954,142.079 194.413 C 141.262 194.872,139.926 195.625,139.109 196.086 C 118.636 207.640,97.384 229.230,89.199 246.787 C 87.769 249.855,87.298 251.016,85.165 256.733 C 81.615 266.246,81.553 278.906,84.991 292.079 C 85.886 295.508,86.048 296.029,86.339 296.436 C 86.496 296.653,86.749 297.366,86.902 298.020 C 88.202 303.554,94.130 311.514,102.059 318.372 C 105.328 321.200,115.547 327.129,117.153 327.129 C 117.362 327.129,118.935 327.601,120.648 328.179 C 122.361 328.757,124.297 329.365,124.950 329.531 C 125.604 329.697,127.119 330.094,128.317 330.414 C 129.515 330.734,131.743 331.211,133.267 331.476 C 134.792 331.740,137.287 332.197,138.812 332.491 C 148.471 334.355,163.527 334.059,178.614 331.708 C 200.002 328.376,222.500 312.843,236.587 291.683 C 242.617 282.625,250.169 265.990,251.869 258.020 C 252.172 256.599,253.705 250.365,254.644 246.733 C 254.841 245.970,255.207 244.188,255.457 242.772 C 255.707 241.356,256.167 238.950,256.479 237.426 C 258.345 228.293,259.005 212.888,258.224 196.634 C 257.963 191.188,257.721 186.020,257.686 185.149 L 257.624 183.564 263.564 183.647 C 269.117 183.724,273.419 184.088,279.604 185.005 C 286.641 186.047,292.075 186.963,295.842 187.740 C 298.129 188.212,300.734 188.748,301.632 188.931 C 313.178 191.285,325.157 195.983,332.853 201.175 C 346.788 210.577,360.039 211.110,371.213 202.718 C 380.519 195.729,382.112 183.545,374.655 176.399 C 370.524 172.439,364.794 169.351,358.812 167.861 C 353.871 166.630,350.761 166.062,341.782 164.751 C 340.149 164.513,338.010 164.162,337.030 163.972 C 336.050 163.782,333.376 163.426,331.089 163.180 C 328.802 162.934,324.703 162.401,321.980 161.994 C 308.613 159.998,273.379 159.011,258.765 160.223 C 256.052 160.448,255.937 160.422,255.728 159.535 C 255.540 158.736,254.535 154.955,253.484 151.089 C 253.118 149.746,252.755 148.681,252.267 147.525 C 252.084 147.089,251.553 145.574,251.089 144.158 C 250.625 142.743,250.055 141.139,249.822 140.594 C 249.589 140.050,249.265 139.248,249.101 138.812 C 247.801 135.363,238.361 117.238,236.621 114.851 C 229.707 105.368,227.839 103.082,223.169 98.388 C 216.827 92.012,210.110 86.886,203.671 83.506 C 201.979 82.617,200.059 81.567,199.406 81.172 C 198.752 80.777,197.327 80.165,196.238 79.811 C 195.149 79.457,193.901 79.001,193.465 78.797 C 192.496 78.343,189.031 77.398,184.752 76.421 C 179.373 75.193,162.326 75.212,153.861 76.455 C 143.176 78.025,132.429 80.629,126.139 83.173 C 125.703 83.349,122.762 84.505,119.604 85.743 C 97.025 94.588,74.769 114.071,60.789 137.228 C 59.737 138.970,57.986 141.822,56.897 143.564 C 54.868 146.811,51.482 153.258,50.136 156.436 C 49.721 157.416,48.986 159.109,48.502 160.198 C 46.820 163.986,44.316 169.990,43.364 172.520 C 42.837 173.921,42.113 175.731,41.756 176.543 C 40.689 178.973,40.468 179.540,40.026 180.990 C 39.794 181.752,39.165 183.741,38.629 185.410 C 38.092 187.078,37.307 189.751,36.884 191.350 C 36.461 192.949,35.842 195.059,35.510 196.040 C 34.521 198.956,31.276 212.552,30.499 217.030 C 29.104 225.079,28.577 228.351,28.104 231.881 C 27.842 233.842,27.382 236.451,27.081 237.681 C 26.781 238.910,26.525 240.603,26.514 241.443 L 26.494 242.970 25.976 241.584 C 19.125 223.228,18.299 189.655,24.019 161.980 C 24.582 159.257,25.187 156.317,25.363 155.446 C 26.418 150.230,30.057 138.888,32.132 134.347 C 32.756 132.980,33.267 131.775,33.267 131.669 C 33.267 131.563,33.642 130.632,34.099 129.600 C 34.556 128.567,35.073 127.366,35.247 126.931 C 36.927 122.720,40.297 115.767,41.388 114.257 C 41.861 113.604,43.019 111.644,43.963 109.901 C 46.375 105.446,54.668 93.086,57.781 89.307 C 64.384 81.289,74.107 70.818,77.822 67.723 C 79.867 66.019,84.149 62.386,84.356 62.178 C 86.704 59.830,98.800 50.961,102.605 48.797 C 103.351 48.373,105.386 47.151,107.129 46.081 C 108.871 45.011,111.812 43.359,113.663 42.410 C 115.515 41.461,117.297 40.457,117.624 40.178 C 117.950 39.900,120.446 38.619,123.168 37.333 C 127.848 35.123,129.533 34.422,134.950 32.430 C 136.203 31.970,137.762 31.359,138.416 31.073 C 145.314 28.052,157.908 25.037,175.788 22.124 C 188.928 19.984,212.273 20.018,225.446 22.198 C 235.746 23.902,236.838 24.117,242.772 25.613 C 249.357 27.274,251.128 27.797,262.178 31.345 C 263.521 31.776,264.667 32.251,268.610 34.013 C 269.642 34.474,270.573 34.851,270.679 34.851 C 270.785 34.851,272.034 35.386,273.455 36.040 C 274.877 36.693,277.243 37.768,278.713 38.429 C 287.156 42.225,297.042 48.163,308.084 56.072 C 315.099 61.097,325.797 70.768,333.465 79.016 C 338.396 84.320,341.851 88.436,343.766 91.287 C 344.498 92.376,345.197 93.356,345.320 93.465 C 345.943 94.015,348.240 97.217,350.293 100.396 C 357.912 112.193,365.260 126.814,368.704 137.030 C 369.401 139.099,370.127 141.149,370.317 141.584 C 370.507 142.020,370.955 143.305,371.313 144.441 C 372.194 147.240,371.956 147.152,380.000 147.672 C 383.921 147.925,388.351 148.272,389.845 148.442 C 393.251 148.829,393.239 148.860,391.714 143.703 C 387.830 130.568,386.461 126.811,382.614 118.728 C 381.503 116.394,380.594 114.331,380.594 114.144 C 380.594 113.777,376.538 105.723,375.117 103.267 C 374.644 102.450,373.898 101.147,373.458 100.371 C 371.444 96.815,361.618 82.132,359.034 78.815 C 357.931 77.400,356.762 75.898,356.436 75.477 C 356.109 75.056,354.772 73.532,353.465 72.089 C 352.158 70.647,350.167 68.406,349.040 67.110 C 344.701 62.120,336.622 54.190,331.863 50.251 C 329.131 47.989,325.499 44.980,323.792 43.564 C 319.232 39.782,312.210 34.766,309.067 33.048 C 308.001 32.465,305.192 30.736,302.825 29.206 C 298.821 26.618,283.501 18.617,282.544 18.615 C 281.988 18.614,277.619 16.862,272.777 14.700 C 271.744 14.239,270.666 13.861,270.381 13.861 C 270.095 13.861,269.692 13.705,269.485 13.514 C 268.345 12.461,252.381 7.714,242.772 5.571 C 240.703 5.110,238.386 4.571,237.624 4.374 C 236.224 4.012,233.163 3.526,227.723 2.801 C 226.089 2.583,224.040 2.304,223.168 2.181 C 215.231 1.057,194.525 0.630,185.743 1.408 M212.611 194.455 C 214.024 215.658,209.917 242.045,203.402 253.624 C 202.899 254.517,202.085 255.960,201.592 256.830 C 190.758 275.966,169.260 284.293,153.478 275.467 C 143.139 269.686,140.139 258.258,144.167 240.000 C 144.384 239.020,144.663 237.594,144.787 236.832 C 144.912 236.069,145.160 235.089,145.338 234.653 C 145.517 234.218,145.877 233.238,146.139 232.475 C 151.257 217.570,164.483 204.374,182.574 196.120 C 185.680 194.703,187.942 193.794,194.851 191.184 C 198.616 189.763,211.483 186.816,211.916 187.277 C 212.045 187.413,212.357 190.644,212.611 194.455 " stroke="none" fill="#845c44" fill-rule="evenodd" data-darkreader-inline-fill="" data-darkreader-inline-stroke="" style="--darkreader-inline-fill: var(--darkreader-background-845c44, #806c59); --darkreader-inline-stroke: none;"></path>
        <path id="path1" d="M0.028 91.782 C 0.043 143.341,0.205 183.217,0.396 182.772 C 0.583 182.337,0.749 180.932,0.764 179.650 C 0.780 178.368,0.957 176.675,1.159 175.888 C 1.361 175.100,1.730 172.941,1.980 171.089 C 2.889 164.338,5.678 150.109,6.714 146.931 C 6.892 146.386,7.260 145.139,7.532 144.158 C 8.632 140.205,8.888 139.428,10.550 135.027 C 11.500 132.510,12.277 130.325,12.277 130.172 C 12.277 130.018,12.614 129.137,13.025 128.214 C 13.437 127.290,14.536 124.574,15.468 122.178 C 17.391 117.237,22.530 107.049,26.656 100.000 C 28.185 97.386,29.889 94.446,30.440 93.465 C 31.772 91.101,35.376 85.842,37.392 83.325 C 38.282 82.213,40.614 79.192,42.574 76.611 C 49.606 67.354,62.151 54.480,71.485 46.940 C 73.010 45.708,74.572 44.444,74.957 44.131 C 75.342 43.817,76.590 42.901,77.729 42.095 C 78.869 41.289,81.196 39.641,82.900 38.434 C 84.603 37.226,86.742 35.754,87.652 35.163 C 88.562 34.572,89.485 33.939,89.703 33.756 C 92.006 31.821,111.176 20.990,112.298 20.990 C 112.387 20.990,114.647 19.946,117.319 18.670 C 124.654 15.167,125.336 14.885,130.891 13.071 C 133.723 12.146,137.428 10.871,139.124 10.238 C 144.017 8.413,151.765 6.436,159.010 5.165 C 168.143 3.562,170.220 3.236,174.257 2.768 C 176.545 2.503,179.040 2.142,179.802 1.966 C 185.553 0.641,208.853 0.658,221.188 1.997 C 227.599 2.693,235.593 3.849,237.624 4.374 C 238.386 4.571,240.703 5.110,242.772 5.571 C 252.381 7.714,268.345 12.461,269.485 13.514 C 269.692 13.705,270.095 13.861,270.381 13.861 C 270.666 13.861,271.744 14.239,272.777 14.700 C 277.619 16.862,281.988 18.614,282.544 18.615 C 283.501 18.617,298.821 26.618,302.825 29.206 C 305.192 30.736,308.001 32.465,309.067 33.048 C 312.210 34.766,319.232 39.782,323.792 43.564 C 325.499 44.980,329.131 47.989,331.863 50.251 C 336.622 54.190,344.701 62.120,349.040 67.110 C 350.167 68.406,352.158 70.647,353.465 72.089 C 354.772 73.532,356.109 75.056,356.436 75.477 C 356.762 75.898,357.931 77.400,359.034 78.815 C 361.618 82.132,371.444 96.815,373.458 100.371 C 373.898 101.147,374.644 102.450,375.117 103.267 C 376.538 105.723,380.594 113.777,380.594 114.144 C 380.594 114.331,381.503 116.394,382.614 118.728 C 386.461 126.811,387.830 130.568,391.714 143.703 C 393.239 148.860,393.251 148.829,389.845 148.442 C 388.351 148.272,383.921 147.925,380.000 147.672 C 371.956 147.152,372.194 147.240,371.313 144.441 C 370.955 143.305,370.507 142.020,370.317 141.584 C 370.127 141.149,369.401 139.099,368.704 137.030 C 365.260 126.814,357.912 112.193,350.293 100.396 C 348.240 97.217,345.943 94.015,345.320 93.465 C 345.197 93.356,344.498 92.376,343.766 91.287 C 341.851 88.436,338.396 84.320,333.465 79.016 C 325.797 70.768,315.099 61.097,308.084 56.072 C 297.042 48.163,287.156 42.225,278.713 38.429 C 277.243 37.768,274.877 36.693,273.455 36.040 C 272.034 35.386,270.785 34.851,270.679 34.851 C 270.573 34.851,269.686 34.495,268.709 34.059 C 264.543 32.204,263.491 31.766,262.178 31.345 C 251.128 27.797,249.357 27.274,242.772 25.613 C 236.838 24.117,235.746 23.902,225.446 22.198 C 216.995 20.800,198.457 20.085,188.515 20.774 C 172.150 21.908,148.015 26.870,138.416 31.073 C 137.762 31.359,136.203 31.970,134.950 32.430 C 129.533 34.422,127.848 35.123,123.168 37.333 C 120.446 38.619,117.950 39.900,117.624 40.178 C 117.297 40.457,115.515 41.461,113.663 42.410 C 111.812 43.359,108.871 45.011,107.129 46.081 C 105.386 47.151,103.351 48.373,102.605 48.797 C 98.800 50.961,86.704 59.830,84.356 62.178 C 84.149 62.386,79.867 66.019,77.822 67.723 C 74.107 70.818,64.384 81.289,57.781 89.307 C 54.668 93.086,46.375 105.446,43.963 109.901 C 43.019 111.644,41.861 113.604,41.388 114.257 C 40.297 115.767,36.927 122.720,35.247 126.931 C 35.073 127.366,34.556 128.567,34.099 129.600 C 33.642 130.632,33.267 131.563,33.267 131.669 C 33.267 131.775,32.756 132.980,32.132 134.347 C 30.057 138.888,26.418 150.230,25.363 155.446 C 25.187 156.317,24.582 159.257,24.019 161.980 C 19.947 181.682,19.101 200.689,21.427 220.198 C 22.437 228.664,24.137 236.656,25.976 241.584 L 26.494 242.970 26.514 241.443 C 26.525 240.603,26.781 238.910,27.081 237.681 C 27.382 236.451,27.842 233.842,28.104 231.881 C 28.577 228.351,29.104 225.079,30.499 217.030 C 31.276 212.552,34.521 198.956,35.510 196.040 C 35.842 195.059,36.461 192.949,36.884 191.350 C 37.307 189.751,38.092 187.078,38.629 185.410 C 39.165 183.741,39.794 181.752,40.026 180.990 C 40.468 179.540,40.689 178.973,41.756 176.543 C 42.113 175.731,42.837 173.921,43.364 172.520 C 44.316 169.990,46.820 163.986,48.502 160.198 C 48.986 159.109,49.721 157.416,50.136 156.436 C 51.482 153.258,54.868 146.811,56.897 143.564 C 57.986 141.822,59.737 138.970,60.789 137.228 C 74.769 114.071,97.025 94.588,119.604 85.743 C 122.762 84.505,125.703 83.349,126.139 83.173 C 132.429 80.629,143.176 78.025,153.861 76.455 C 162.326 75.212,179.373 75.193,184.752 76.421 C 189.031 77.398,192.496 78.343,193.465 78.797 C 193.901 79.001,195.149 79.457,196.238 79.811 C 197.327 80.165,198.752 80.777,199.406 81.172 C 200.059 81.567,201.979 82.617,203.671 83.506 C 210.110 86.886,216.827 92.012,223.169 98.388 C 227.839 103.082,229.707 105.368,236.621 114.851 C 238.365 117.243,247.400 134.587,249.207 139.010 C 250.100 141.197,250.277 141.682,251.089 144.158 C 251.553 145.574,252.084 147.089,252.267 147.525 C 252.755 148.681,253.118 149.746,253.484 151.089 C 254.535 154.955,255.540 158.736,255.728 159.535 C 255.937 160.422,256.052 160.448,258.765 160.223 C 273.379 159.011,308.613 159.998,321.980 161.994 C 324.703 162.401,328.802 162.934,331.089 163.180 C 333.376 163.426,336.050 163.782,337.030 163.972 C 338.010 164.162,340.149 164.513,341.782 164.751 C 359.415 167.326,364.184 168.760,371.384 173.653 C 380.078 179.560,381.902 189.346,375.898 197.871 C 373.419 201.391,369.774 204.191,364.854 206.354 C 355.016 210.681,344.395 208.962,332.853 201.175 C 325.157 195.983,313.178 191.285,301.632 188.931 C 300.734 188.748,298.129 188.212,295.842 187.740 C 292.075 186.963,286.641 186.047,279.604 185.005 C 273.419 184.088,269.117 183.724,263.564 183.647 L 257.624 183.564 257.686 185.149 C 257.721 186.020,257.963 191.188,258.224 196.634 C 259.005 212.888,258.345 228.293,256.479 237.426 C 256.167 238.950,255.707 241.356,255.457 242.772 C 255.207 244.188,254.841 245.970,254.644 246.733 C 253.705 250.365,252.172 256.599,251.869 258.020 C 250.169 265.990,242.617 282.625,236.587 291.683 C 222.500 312.843,200.002 328.376,178.614 331.708 C 163.527 334.059,148.471 334.355,138.812 332.491 C 137.287 332.197,134.792 331.740,133.267 331.476 C 131.743 331.211,129.515 330.734,128.317 330.414 C 127.119 330.094,125.604 329.697,124.950 329.531 C 124.297 329.365,122.361 328.757,120.648 328.179 C 118.935 327.601,117.362 327.129,117.153 327.129 C 115.547 327.129,105.328 321.200,102.059 318.372 C 94.130 311.514,88.202 303.554,86.902 298.020 C 86.749 297.366,86.496 296.653,86.339 296.436 C 86.048 296.029,85.886 295.508,84.991 292.079 C 82.094 280.978,81.663 269.812,83.800 261.188 C 84.653 257.745,86.964 251.582,89.199 246.787 C 97.384 229.230,118.636 207.640,139.109 196.086 C 139.926 195.625,141.262 194.872,142.079 194.413 C 142.896 193.954,143.743 193.445,143.960 193.282 C 145.227 192.333,162.843 183.300,165.941 182.011 C 166.921 181.603,168.525 180.921,169.505 180.496 C 170.485 180.071,171.688 179.563,172.178 179.366 C 172.668 179.170,173.515 178.832,174.059 178.614 C 174.604 178.396,175.450 178.051,175.941 177.848 C 176.431 177.644,177.990 177.095,179.406 176.627 C 180.822 176.159,182.515 175.541,183.168 175.254 C 185.457 174.249,196.266 170.779,199.208 170.105 C 200.842 169.731,202.980 169.188,203.960 168.899 C 206.571 168.129,212.523 166.733,213.196 166.733 C 217.507 166.733,205.998 141.791,198.355 134.570 C 185.019 121.972,156.598 116.257,139.882 122.812 C 139.382 123.008,138.702 123.168,138.372 123.168 C 137.578 123.168,133.105 125.313,129.960 127.202 C 128.576 128.033,127.363 128.713,127.265 128.713 C 124.208 128.713,106.140 146.161,99.995 155.049 C 98.941 156.573,97.830 158.068,97.527 158.371 C 96.830 159.068,92.277 165.824,92.277 166.161 C 92.277 166.299,91.948 166.885,91.546 167.464 C 90.459 169.025,88.495 172.662,85.738 178.218 C 79.858 190.069,77.580 195.484,74.244 205.545 C 72.619 210.446,71.006 215.257,70.661 216.238 C 69.246 220.249,66.815 231.433,65.344 240.693 C 64.662 244.984,64.200 248.029,63.798 250.891 C 63.584 252.416,63.207 254.911,62.961 256.436 C 61.534 265.274,60.746 299.436,61.749 308.988 L 62.069 312.035 64.797 315.126 C 68.949 319.831,81.313 331.755,85.545 335.135 C 89.196 338.052,92.573 340.477,100.792 346.085 C 104.330 348.499,113.436 353.894,116.040 355.119 C 116.584 355.376,119.436 356.738,122.376 358.146 C 129.090 361.363,134.558 363.665,137.624 364.567 C 138.931 364.951,141.515 365.754,143.366 366.351 C 145.218 366.948,147.535 367.657,148.515 367.926 C 149.495 368.194,151.099 368.651,152.079 368.940 C 157.221 370.459,165.246 372.263,170.495 373.081 C 172.020 373.319,174.127 373.681,175.179 373.885 C 176.230 374.090,178.093 374.257,179.319 374.257 C 180.545 374.257,183.427 374.433,185.724 374.648 C 205.684 376.515,220.516 375.353,244.554 370.040 C 249.094 369.037,258.772 365.985,261.980 364.545 C 263.069 364.056,264.584 363.436,265.347 363.168 C 266.109 362.899,267.267 362.448,267.921 362.165 C 268.574 361.883,270.802 360.978,272.871 360.154 C 274.941 359.331,277.525 358.188,278.614 357.615 C 283.592 354.994,290.592 351.111,291.546 350.441 C 292.124 350.035,292.690 349.703,292.803 349.703 C 292.915 349.703,294.403 348.821,296.108 347.744 C 297.813 346.666,300.455 345.020,301.980 344.087 C 304.862 342.322,314.917 334.533,318.020 331.661 C 319.000 330.753,321.006 329.001,322.477 327.766 C 327.273 323.742,334.597 315.850,341.631 307.129 C 342.685 305.822,343.881 304.396,344.289 303.960 C 345.305 302.876,348.911 297.542,348.911 297.122 C 348.911 296.936,349.223 296.438,349.604 296.015 C 351.989 293.373,362.255 275.371,363.931 270.891 C 364.418 269.588,364.749 268.786,366.096 265.644 C 368.969 258.942,371.818 250.944,373.466 244.950 C 373.646 244.297,374.071 242.748,374.410 241.508 C 375.281 238.329,377.787 224.652,378.279 220.396 C 378.505 218.436,378.852 215.673,379.048 214.257 C 379.245 212.842,379.513 209.010,379.645 205.743 C 379.904 199.311,379.998 198.983,381.425 199.544 C 381.948 199.749,383.178 200.138,384.158 200.408 C 387.707 201.386,388.750 201.709,390.891 202.497 C 392.089 202.937,393.248 203.418,393.465 203.564 C 393.683 203.711,394.931 204.243,396.238 204.747 C 397.545 205.251,398.812 205.904,399.054 206.198 C 399.548 206.799,399.421 212.849,398.825 217.030 C 398.624 218.446,398.257 221.119,398.010 222.970 C 397.763 224.822,397.393 227.406,397.187 228.713 C 396.982 230.020,396.634 232.248,396.415 233.663 C 395.909 236.925,395.288 240.200,394.838 241.980 C 394.645 242.743,394.199 244.525,393.846 245.941 C 393.493 247.356,393.050 249.050,392.862 249.703 C 392.184 252.057,391.677 253.885,391.349 255.158 C 391.165 255.871,390.830 256.807,390.603 257.237 C 390.376 257.668,389.638 259.638,388.962 261.616 C 388.286 263.595,387.196 266.515,386.540 268.107 C 385.883 269.698,385.347 271.156,385.347 271.346 C 385.347 272.225,378.849 285.860,375.845 291.287 C 372.061 298.121,371.089 299.918,371.089 300.079 C 371.089 300.449,363.507 311.560,361.954 313.465 C 361.067 314.554,359.596 316.534,358.685 317.864 C 351.925 327.741,332.307 346.978,320.750 355.062 C 318.922 356.341,317.337 357.494,317.228 357.624 C 317.119 357.754,316.406 358.288,315.644 358.812 C 314.881 359.335,314.168 359.883,314.059 360.029 C 313.063 361.365,296.434 370.955,288.119 374.989 C 285.287 376.363,282.347 377.803,281.584 378.190 C 279.492 379.250,269.030 383.226,265.545 384.286 C 264.455 384.618,262.228 385.371,260.594 385.961 C 258.960 386.550,257.089 387.176,256.436 387.350 C 255.782 387.525,253.822 388.051,252.079 388.519 C 247.253 389.815,246.406 390.012,242.772 390.685 C 240.921 391.028,238.515 391.474,237.426 391.676 C 234.177 392.278,230.863 392.826,227.921 393.247 C 226.396 393.465,223.188 393.960,220.792 394.346 C 217.229 394.921,213.949 395.048,202.772 395.049 C 186.382 395.050,177.134 394.482,167.129 392.860 C 161.571 391.960,160.595 391.768,158.416 391.154 C 157.218 390.816,154.550 390.152,152.487 389.679 C 147.327 388.495,134.654 384.848,131.287 383.578 C 129.762 383.002,127.624 382.205,126.535 381.806 C 125.446 381.406,123.396 380.539,121.980 379.878 C 120.564 379.217,118.426 378.291,117.228 377.820 C 113.237 376.251,101.760 370.213,96.690 367.016 C 87.449 361.191,80.656 356.649,78.041 354.549 C 74.477 351.687,70.455 348.398,69.935 347.921 C 69.698 347.703,68.170 346.366,66.540 344.950 C 64.910 343.535,63.199 342.020,62.738 341.584 C 62.277 341.149,61.027 339.970,59.960 338.966 C 55.824 335.072,50.179 328.880,43.241 320.627 C 40.259 317.080,34.075 308.225,27.635 298.279 C 27.163 297.551,26.010 296.224,25.072 295.330 C 23.775 294.094,23.366 293.409,23.366 292.471 C 23.366 291.726,22.113 288.710,20.198 284.850 C 18.455 281.337,17.030 278.305,17.030 278.113 C 17.030 277.921,16.526 276.708,15.910 275.417 C 15.294 274.126,14.211 271.554,13.503 269.703 C 12.795 267.851,11.993 265.802,11.719 265.149 C 11.256 264.038,10.324 261.087,8.350 254.469 C 7.897 252.951,6.719 248.407,5.732 244.370 C 4.744 240.333,3.774 236.406,3.576 235.644 C 3.108 233.843,2.516 230.344,1.969 226.139 C 1.728 224.287,1.365 221.807,1.161 220.627 C 0.958 219.447,0.774 216.596,0.753 214.290 C 0.731 211.985,0.570 209.653,0.396 209.109 C 0.222 208.564,0.061 250.401,0.039 302.079 L 0.000 396.040 200.000 396.040 L 400.000 396.040 400.000 198.020 L 400.000 0.000 200.000 0.000 L 0.000 0.000 0.028 91.782 M209.109 187.564 C 202.747 188.886,197.222 190.289,194.851 191.184 C 187.942 193.794,185.680 194.703,182.574 196.120 C 164.483 204.374,151.257 217.570,146.139 232.475 C 145.877 233.238,145.517 234.218,145.338 234.653 C 145.160 235.089,144.912 236.069,144.787 236.832 C 144.663 237.594,144.384 239.020,144.167 240.000 C 138.919 263.790,145.463 276.086,164.800 278.765 C 177.983 280.592,193.314 271.452,201.592 256.830 C 202.085 255.960,202.899 254.517,203.402 253.624 C 209.917 242.045,214.024 215.658,212.611 194.455 C 212.070 186.336,212.352 186.890,209.109 187.564 " stroke="none" fill="transparent" fill-rule="evenodd" data-darkreader-inline-fill="" data-darkreader-inline-stroke="" style="--darkreader-inline-fill: transparent; --darkreader-inline-stroke: none;"></path>
    </g>
</svg>