<?xml version="1.0" encoding="UTF-8" standalone="no"?>
<!-- Created with Inkscape (http://www.inkscape.org/) -->

<svg
   width="388.48041"
   height="388.48041"
   viewBox="0 0 102.78544 102.78545"
   version="1.1"
   id="svg1052"
   inkscape:version="1.1.2 (0a00cf5339, 2022-02-04)"
   sodipodi:docname="cite-runner-logo-no-text-small.svg"
   xmlns:inkscape="http://www.inkscape.org/namespaces/inkscape"
   xmlns:sodipodi="http://sodipodi.sourceforge.net/DTD/sodipodi-0.dtd"
   xmlns="http://www.w3.org/2000/svg"
   xmlns:svg="http://www.w3.org/2000/svg">
  <sodipodi:namedview
     id="namedview1054"
     pagecolor="#ffffff"
     bordercolor="#eeeeee"
     borderopacity="1"
     inkscape:pageshadow="0"
     inkscape:pageopacity="0"
     inkscape:pagecheckerboard="true"
     inkscape:document-units="mm"
     showgrid="false"
     fit-margin-top="0"
     fit-margin-left="0"
     fit-margin-right="0"
     fit-margin-bottom="0"
     units="px"
     inkscape:zoom="1.8116735"
     inkscape:cx="181.87604"
     inkscape:cy="198.43532"
     inkscape:window-width="1920"
     inkscape:window-height="1016"
     inkscape:window-x="0"
     inkscape:window-y="27"
     inkscape:window-maximized="1"
     inkscape:current-layer="layer2"
     inkscape:snap-object-midpoints="true"
     inkscape:snap-nodes="false" />
  <defs
     id="defs1049" />
  <g
     inkscape:groupmode="layer"
     id="layer2"
     inkscape:label="background"
     transform="translate(7.4194527,7.5425568)">
    <circle
       style="fill:#ffffff;stroke-width:1;stroke-linejoin:round;stroke-opacity:0"
       id="path1020"
       cx="43.973267"
       cy="43.850163"
       r="51.392719" />
  </g>
  <g
     inkscape:label="Layer 1"
     inkscape:groupmode="layer"
     id="layer1"
     transform="translate(-6.6083549,-9.1038589)"
     style="display:inline">
    <path
       id="path12905"
       style="display:inline;fill:#302343;fill-opacity:1;stroke-width:0.0846667"
       d="m 58.408203,19.837891 c -9.672539,0.09699 -19.138381,3.720688 -26.601562,9.83789 -4.916663,4.047044 -8.94926,9.392615 -11.417969,15.15625 -1.783903,4.180612 -2.868882,8.552039 -3.115786,13.087194 -0.354332,5.649497 0.419005,11.506677 2.549604,16.843402 2.684519,6.996979 7.569976,13.209755 13.652486,17.647651 6.486884,4.785439 14.263099,7.664662 22.308365,8.286762 9.475127,0.77834 19.332058,-1.773051 27.300643,-7.109149 1.382399,-0.930766 2.721389,-1.927249 3.984375,-3.015625 -2.862622,-2.881477 -5.705732,-5.782767 -8.615234,-8.617188 -8.075453,6.728545 -19.908704,8.480264 -29.612464,4.464747 -8.599163,-3.447742 -15.490059,-11.234669 -17.269002,-20.400649 -1.884871,-9.095042 1.083324,-19.069555 7.776533,-25.541783 6.977654,-6.927368 17.600056,-10.037375 27.17795,-7.657432 3.92484,0.916504 7.657167,2.643114 10.903546,5.029648 2.889374,-2.864424 5.822899,-5.710648 8.626953,-8.640625 -7.687783,-6.259189 -17.694222,-9.629503 -27.648438,-9.371093 z" />
    <g
       id="g1410">
      <path
         id="path12957"
         style="display:inline;fill:#302343;fill-opacity:1;stroke-width:0.0846667"
         d="m 63.894531,42.279297 c -2.552134,0.176302 -4.849042,2.337849 -5.179687,4.869141 -0.116655,1.636576 0.190848,3.394599 1.37519,4.611869 1.777928,2.083462 5.107604,2.531495 7.363246,0.975078 2.28933,-1.463946 3.304746,-4.655129 2.074739,-7.11974 -0.965015,-2.134294 -3.272501,-3.58639 -5.633488,-3.336348 z" />
      <path
         id="path12955"
         style="display:inline;fill:#302343;fill-opacity:1;stroke-width:0.0846667"
         d="m 61.654297,52.146484 c -3.345354,0.289322 -6.725234,0.359925 -10.033203,0.953125 -1.573634,0.594947 -2.042542,2.373591 -2.949284,3.621512 -0.887682,1.50453 -2.130543,2.944287 -2.330013,4.737863 -0.01964,2.323016 3.134489,3.910898 4.919922,2.345704 1.24627,-1.154485 1.917976,-2.755622 2.867779,-4.135143 0.206871,-0.45134 0.481613,-0.898554 1.05795,-0.769987 0.416435,0.06978 -0.250222,0.998843 -0.264153,1.409872 -0.780069,2.349973 -1.426217,4.762737 -2.351254,7.054442 -1.024503,1.640424 -2.154507,3.210386 -3.238057,4.809956 -2.148698,0.448601 -4.43032,0.394788 -6.476562,1.246094 -2.053868,1.191572 -1.799086,4.769023 0.480469,5.552734 1.713974,0.605115 3.497418,-0.135147 5.232114,-0.240308 1.595607,-0.23824 3.347166,-0.211911 4.75812,-1.080004 1.209096,-0.974753 1.866416,-2.434158 2.869064,-3.59475 0.620251,-0.834664 1.208989,-1.692766 1.843827,-2.516578 1.506516,1.077361 2.947306,2.243397 4.357422,3.443359 0.327124,2.076553 0.349241,4.221745 0.914092,6.24753 0.925626,2.065335 4.189524,2.389337 5.439423,0.465361 0.879341,-1.314189 0.397871,-2.96918 0.335304,-4.378164 -0.247646,-1.951975 -0.215925,-3.986093 -0.878976,-5.853239 -0.835281,-1.406535 -2.347857,-2.190278 -3.489865,-3.31318 -0.412702,-0.347673 -0.826965,-0.693887 -1.226228,-1.05698 0.568359,-1.565104 1.136718,-3.130208 1.705078,-4.695312 0.950155,1.156718 2.112032,2.569159 3.777343,2.416015 1.787221,-0.169877 3.557659,-0.499279 5.342517,-0.707402 1.245215,-0.20444 2.74861,-0.596828 3.182737,-1.951028 0.747331,-1.799233 -0.52345,-4.196941 -2.552597,-4.271257 -1.474421,-0.05841 -2.918001,0.351002 -4.382099,0.474557 -0.690093,0.316232 -0.946925,-0.539384 -1.386634,-0.900371 -1.44573,-1.589248 -2.768218,-3.346592 -4.502752,-4.63278 -0.91187,-0.524729 -1.978868,-0.714604 -3.021484,-0.681641 z" />
    </g>
  </g>
</svg>
