<?xml version="1.0" encoding="UTF-8" standalone="no"?>
<!-- Created with Inkscape (http://www.inkscape.org/) -->

<svg
   width="291.30005"
   height="330.30316"
   viewBox="0 0 77.073135 87.392715"
   version="1.1"
   id="svg1052"
   inkscape:version="1.1.2 (0a00cf5339, 2022-02-04)"
   sodipodi:docname="cite-runner-logo-no-text.svg"
   xmlns:inkscape="http://www.inkscape.org/namespaces/inkscape"
   xmlns:sodipodi="http://sodipodi.sourceforge.net/DTD/sodipodi-0.dtd"
   xmlns="http://www.w3.org/2000/svg"
   xmlns:svg="http://www.w3.org/2000/svg">
  <sodipodi:namedview
     id="namedview1054"
     pagecolor="#ffffff"
     bordercolor="#eeeeee"
     borderopacity="1"
     inkscape:pageshadow="0"
     inkscape:pageopacity="0"
     inkscape:pagecheckerboard="false"
     inkscape:document-units="mm"
     showgrid="false"
     fit-margin-top="0"
     fit-margin-left="0"
     fit-margin-right="0"
     fit-margin-bottom="0"
     units="px"
     inkscape:zoom="1.2810466"
     inkscape:cx="190.85957"
     inkscape:cy="223.64526"
     inkscape:window-width="1920"
     inkscape:window-height="1016"
     inkscape:window-x="0"
     inkscape:window-y="27"
     inkscape:window-maximized="1"
     inkscape:current-layer="layer1" />
  <defs
     id="defs1049" />
  <g
     inkscape:label="Layer 1"
     inkscape:groupmode="layer"
     id="layer1"
     transform="translate(-14.027808,-16.646416)">
    <g
       id="g941"
       transform="translate(-30.665163,-18.539309)">
      <path
         style="display:inline;fill:#302343;fill-opacity:1;stroke-width:0.0846667"
         d="m 88.222662,122.54175 c -10.614575,-0.4428 -20.370897,-4.20015 -28.447153,-10.95555 -1.353976,-1.13253 -3.687535,-3.45483 -4.875114,-4.85159 -3.03312,-3.56737 -5.467334,-7.535993 -7.174079,-11.696278 -1.507342,-3.674218 -2.558426,-8.063711 -2.939706,-12.276663 -0.124347,-1.373984 -0.124987,-5.727753 -0.0011,-7.196667 0.317601,-3.764418 1.08997,-7.444129 2.203667,-10.498667 0.10187,-0.2794 0.282276,-0.7747 0.4009,-1.100666 0.118626,-0.325967 0.282112,-0.745067 0.363304,-0.931334 0.08119,-0.186266 0.285684,-0.672843 0.454425,-1.08128 0.360341,-0.872199 1.333402,-2.832087 1.94328,-3.914053 0.236238,-0.4191 0.429842,-0.78105 0.430236,-0.804333 5.29e-4,-0.02328 0.144386,-0.270933 0.319984,-0.550333 0.175599,-0.2794 0.419921,-0.67945 0.542936,-0.889 0.123015,-0.20955 0.285552,-0.463815 0.361191,-0.565029 2.082466,-2.786639 3.329641,-4.321151 4.485936,-5.519446 0.285956,-0.296347 0.519922,-0.569529 0.519922,-0.607071 0,-0.03754 0.17862,-0.23323 0.396939,-0.434858 0.218315,-0.201629 0.567211,-0.538046 0.775321,-0.747596 0.208114,-0.20955 0.542002,-0.51435 0.741979,-0.677334 0.199975,-0.162983 0.761765,-0.644943 1.248421,-1.071022 2.523614,-2.209488 5.955487,-4.476732 9.272413,-6.125755 5.417669,-2.693422 10.692069,-4.177456 16.901927,-4.755621 1.516589,-0.141203 5.875483,-0.141163 7.53533,6.6e-5 4.58747,0.390332 9.277509,1.50659 13.631339,3.24435 2.6686,1.065125 6.50071,3.128528 8.763,4.718431 1.2581,0.884184 3.24363,2.445811 3.90938,3.074747 0.43767,0.413475 0.58713,0.617955 0.66306,0.907118 0.10415,0.396669 0.057,0.838055 -0.12724,1.190093 -0.0618,0.118026 -2.67941,2.772032 -5.81702,5.89779 -5.54711,5.526159 -5.71625,5.68565 -6.12112,5.771999 -0.54578,0.116407 -0.88557,-0.0016 -1.58177,-0.549198 -4.09278,-3.219368 -8.575975,-5.071806 -13.700629,-5.661043 -1.680276,-0.193199 -4.785214,-0.13258 -6.477,0.126452 -7.614171,1.16582 -14.178481,5.411621 -18.202817,11.773593 -1.333079,2.107433 -2.677625,5.352677 -3.1746,7.662333 -0.741929,3.448053 -0.782712,6.99066 -0.119679,10.396093 0.903547,4.640757 3.193237,8.901716 6.632696,12.343011 2.046145,2.047229 3.702487,3.294084 6.05907,4.561091 3.157762,1.69777 6.351743,2.67668 9.990664,3.06199 1.35769,0.14376 4.186208,0.12236 5.538385,-0.0419 3.692713,-0.4486 7.18443,-1.61037 10.20962,-3.39694 1.42566,-0.841956 3.69299,-2.502624 4.27566,-3.131647 0.46934,-0.506672 1.32543,-0.705731 1.84571,-0.429152 0.35618,0.189349 11.68176,11.573929 11.78176,11.843139 0.25858,0.69615 0.0518,1.19826 -0.80954,1.96582 -5.50152,4.90245 -11.3098,8.12017 -18.32126,10.14977 -3.420094,0.99002 -6.948984,1.55975 -10.795002,1.74284 -1.678464,0.0799 -2.197185,0.0842 -3.513667,0.0293 z"
         id="path12905" />
      <g
         id="g21231"
         style="fill:#302343;fill-opacity:1"
         transform="matrix(0.26458333,0,0,0.26458333,-5.8712202e-7,2.9559657e-6)">
        <path
           style="display:inline;fill:#302343;fill-opacity:1;stroke-width:0.32"
           d="m 354.84559,266.41617 c -4.09289,-1.1287 -7.89312,-4.37753 -9.80553,-8.38279 -1.18986,-2.49197 -1.20007,-2.54765 -1.20007,-6.53645 v -4.02306 l 1.35303,-2.73161 c 1.77987,-3.59333 4.70992,-6.45448 7.95472,-7.76771 2.90541,-1.17586 7.02368,-1.4552 10.05225,-0.68184 6.88532,1.7582 12.0072,8.95267 11.41021,16.02729 -0.56649,6.71282 -4.74598,11.98509 -11.0439,13.93147 -2.3528,0.72713 -6.40381,0.80364 -8.72071,0.1647 z"
           id="path12957" />
        <path
           style="display:inline;fill:#302343;fill-opacity:1;stroke-width:0.32"
           d="m 364.03993,377.46617 c -1.64493,-0.60794 -3.34534,-2.29933 -3.71683,-3.69709 -0.16503,-0.62099 -0.82192,-5.73709 -1.45971,-11.36909 -0.63783,-5.632 -1.26074,-10.744 -1.38426,-11.36 -0.20115,-1.00291 -1.19341,-1.88505 -9.49187,-8.43824 -10.33437,-8.16089 -12.66586,-9.80611 -13.87687,-9.79222 -0.70396,0.008 -1.39062,0.79626 -4.5104,5.17738 -2.02399,2.8423 -5.41225,7.48201 -7.52943,10.31046 -2.11721,2.82845 -4.52019,6.09178 -5.33997,7.25187 -3.02788,4.28483 -2.81813,4.20202 -14.49059,5.72183 -4.048,0.52707 -9.43923,1.2487 -11.98052,1.60361 -5.78385,0.80778 -7.0868,0.80765 -8.67187,0 -3.82592,-1.95181 -4.19184,-7.75296 -0.6374,-10.10518 1.38166,-0.91434 1.73296,-0.98147 14.87896,-2.84403 9.76214,-1.38311 9.91883,-1.41709 10.56,-2.29076 0.35795,-0.48774 2.74243,-3.98886 5.29882,-7.78025 2.5564,-3.79139 5.63418,-8.30752 6.83951,-10.03587 2.08184,-2.98519 2.28357,-3.44151 4.03134,-9.12 1.92765,-6.26283 6.51607,-20.56682 9.43655,-29.41757 1.69516,-5.13736 1.70697,-5.2 0.98156,-5.2 -1.52192,0 -14.01903,0.97295 -14.23838,1.10852 -0.12606,0.0779 -0.78261,1.04836 -1.459,2.15656 -8.52533,13.96792 -10.50543,16.93591 -11.7081,17.54947 -3.32738,1.6975 -7.26638,0.0131 -8.33865,-3.56581 -0.57937,-1.93377 0.0546,-3.44632 4.34608,-10.36939 3.12636,-5.04345 7.4463,-12.02927 9.32699,-15.08277 0.23151,-0.37589 1.04039,-0.97803 1.79752,-1.33811 1.18175,-0.56202 3.70909,-0.84639 17.85658,-2.00915 9.064,-0.74496 17.776,-1.36682 19.36,-1.3819 3.56992,-0.034 6.42884,0.86114 8.95072,2.80247 1.37831,1.06101 8.98071,9.4219 18.32868,20.15734 l 1.03939,1.19366 6.80061,-0.95822 c 3.74035,-0.52703 8.43379,-1.13806 10.42988,-1.35785 3.60439,-0.39689 3.63949,-0.39423 5.11792,0.38777 3.92029,2.07362 4.14688,7.98202 0.37981,9.90383 -0.85824,0.43785 -4.51392,1.08412 -12.61433,2.23005 -6.27325,0.88744 -11.98352,1.61353 -12.68957,1.61353 -2.39341,0 -3.15408,-0.60411 -8.48967,-6.74251 -2.80137,-3.2229 -5.53152,-6.35172 -6.06694,-6.95292 l -0.97347,-1.09309 -2.77139,7.63426 c -1.52426,4.19884 -3.98365,10.94626 -5.46528,14.99426 -1.48167,4.048 -2.78829,7.6655 -2.90365,8.03888 -0.18083,0.58538 1.05837,1.73699 8.99878,8.36265 5.06467,4.22608 9.51984,8.10967 9.90039,8.63015 0.98454,1.34662 1.3118,2.80688 1.84854,8.24832 0.26042,2.64 0.79555,7.608 1.18922,11.04 0.39363,3.432 0.72352,7.76278 0.73305,9.62397 0.0163,3.19433 -0.031,3.44739 -0.84464,4.51497 -1.54275,2.02432 -4.45789,2.9048 -6.77811,2.04723 z"
           id="path12955" />
      </g>
      <g
         id="g13019"
         style="fill:#b2bee7;fill-opacity:1"
         transform="matrix(0.26458333,0,0,0.26458333,-5.8712202e-7,2.9559657e-6)">
        <path
           style="display:inline;fill:#b2bee7;fill-opacity:1;stroke-width:0.32"
           d="m 404.8887,166.58399 c 2.42819,-4.38264 4.30157,-8.07945 4.16307,-8.21515 -0.49011,-0.48028 -8.32426,-3.75599 -13.58714,-5.68123 -15.60275,-5.70773 -31.85014,-8.91522 -48.34464,-9.54402 l -5.36,-0.20433 v 9.48427 9.48428 l 0.72,0.1461 c 0.396,0.0804 2.736,0.22254 5.2,0.31594 15.07367,0.57138 34.9152,5.0156 48.48,10.85884 1.848,0.79605 3.57463,1.41954 3.83693,1.38554 0.2632,-0.0341 2.45549,-3.63293 4.89178,-8.03024 z"
           id="path12953" />
        <path
           style="display:inline;fill:#b2bee7;fill-opacity:1;stroke-width:0.32"
           d="m 279.84,174.13618 c 7.37474,-3.32171 17.27257,-6.54485 26.16627,-8.52082 7.11478,-1.58074 20.50806,-3.37156 25.26464,-3.37814 1.10499,-0.002 2.76508,-0.0936 3.68908,-0.20458 l 1.68,-0.20179 v -9.44556 -9.44555 l -5.04,0.20732 c -17.9561,0.73865 -38.30708,5.35722 -55.07224,12.49844 -3.52099,1.49978 -9.20327,4.17601 -9.58257,4.51318 -0.10848,0.0964 2.65731,5.20661 5.36974,9.92132 1.01255,1.76 2.15694,3.82394 2.54309,4.58654 0.39983,0.78964 0.86565,1.3152 1.08203,1.22083 0.20898,-0.0911 1.96396,-0.87918 3.89996,-1.75119 z"
           id="path12951" />
        <path
           style="display:inline;fill:#b2bee7;fill-opacity:1;stroke-width:0.32"
           d="m 437.80086,186.62957 6.41104,-6.33042 -3.62595,-2.86755 c -6.14868,-4.86261 -15.81396,-11.10303 -23.6914,-15.29638 l -2.78544,-1.48276 -1.74928,3.11377 c -5.53811,9.85795 -7.23984,12.95982 -7.23984,13.19667 0,0.14548 2.196,1.40529 4.88,2.79957 5.74333,2.98353 11.70295,6.63746 17.04,10.44748 2.112,1.50771 3.95472,2.74327 4.09492,2.74567 0.14019,0.003 3.13987,-2.84431 6.66595,-6.32605 z"
           id="path12949" />
        <path
           style="display:inline;fill:#b2bee7;fill-opacity:1;stroke-width:0.32"
           d="m 390.35049,192.94902 c 2.63002,-4.83396 5.3633,-9.83518 6.07395,-11.11381 l 1.2921,-2.32478 -1.17827,-0.50668 c -16.38061,-7.04391 -31.52004,-10.51852 -51.49828,-11.81924 l -3.28,-0.21355 v 12.94685 12.94686 l 4.56,0.21968 c 9.13088,0.4399 17.44954,1.73252 25.05402,3.8931 4.81792,1.36887 12.29805,3.90815 13.50934,4.58602 0.30324,0.16969 0.58144,0.27839 0.61828,0.24155 0.0369,-0.0368 2.21881,-4.02204 4.84886,-8.856 z"
           id="path12947" />
        <path
           style="display:inline;fill:#b2bee7;fill-opacity:1;stroke-width:0.32"
           d="m 300.80278,201.29175 c 10.28827,-4.22907 20.51043,-6.75542 31.51721,-7.78931 l 4.16,-0.39076 -0.0237,-12.95584 -0.0237,-12.95584 -3.65644,0.0958 c -16.75494,0.43892 -36.53293,5.06229 -52.86484,12.35788 l -1.84838,0.82568 0.53275,1.04033 c 0.52136,1.01809 8.59647,15.58195 11.70753,21.11512 l 1.57139,2.7948 2.55069,-1.28246 c 1.40289,-0.70536 4.27262,-1.99028 6.37719,-2.85538 z"
           id="path12945" />
        <path
           style="display:inline;fill:#b2bee7;fill-opacity:1;stroke-width:0.32"
           d="m 234.13617,204.85686 c 3.1371,-3.13673 6.99983,-6.77858 8.58383,-8.09301 8.23658,-6.83483 17.93763,-13.3148 25.99396,-17.36307 l 2.31397,-1.16275 -1.44834,-2.44977 c -0.79658,-1.34737 -2.613,-4.62292 -4.03648,-7.27901 -3.38272,-6.31185 -3.42503,-6.37727 -3.88452,-6.00699 -0.20823,0.1678 -2.53859,1.56711 -5.17859,3.10957 -8.53229,4.98513 -16.55184,10.64742 -23.48454,16.58151 -7.21552,6.17616 -18.76036,18.13587 -18.08313,18.73294 0.15822,0.13949 2.87967,2.05975 6.04767,4.26724 3.168,2.2075 6.12,4.31323 6.56,4.67941 0.44,0.36617 0.82527,0.67056 0.85617,0.67642 0.0309,0.006 2.62289,-2.55577 5.76,-5.69249 z"
           id="path12943" />
        <path
           style="display:inline;fill:#b2bee7;fill-opacity:1;stroke-width:0.32"
           d="m 417.99462,206.17234 c 6.95366,-6.96597 9.08976,-9.28607 8.83369,-9.59461 -0.57238,-0.68967 -6.30358,-4.67529 -10.42659,-7.25089 -4.16915,-2.60442 -13.18435,-7.56684 -13.74665,-7.56684 -0.31991,0 -4.34784,7.11504 -9.14845,16.16 -1.21434,2.288 -2.44611,4.57314 -2.73728,5.07809 -0.46688,0.80977 -0.47271,0.95269 -0.0494,1.21138 0.264,0.1613 2.064,1.16305 4,2.22611 3.7945,2.08355 12.2402,7.57711 12.93386,8.41292 0.23347,0.28132 0.5921,0.5115 0.79693,0.5115 0.20483,0 4.49955,-4.13445 9.54384,-9.18766 z"
           id="path12941" />
        <path
           style="display:inline;fill:#b2bee7;fill-opacity:1;stroke-width:0.32"
           d="m 266.37765,223.90194 c 5.28816,-5.11555 13.26096,-11.34204 18.57185,-14.50398 1.14362,-0.68088 2.08183,-1.3696 2.08491,-1.53048 0.003,-0.16089 -1.82379,-3.61689 -4.05969,-7.68 -2.2359,-4.06312 -5.24926,-9.54748 -6.69637,-12.18748 -1.4471,-2.64 -2.82172,-4.8385 -3.05472,-4.88555 -0.72884,-0.14717 -9.14156,4.6205 -14.82363,8.40088 -7.45142,4.95755 -13.05173,9.52793 -19.76,16.12602 -3.124,3.07269 -5.68,5.67868 -5.68,5.79108 0,0.1124 0.612,0.64065 1.36,1.17389 0.748,0.53324 6.5326,4.67829 12.85468,9.21122 l 11.49468,8.24169 2.56298,-2.82962 c 1.40963,-1.55629 3.72503,-3.95374 5.14531,-5.32767 z"
           id="path12939" />
        <path
           style="display:inline;fill:#b2bee7;fill-opacity:1;stroke-width:0.32"
           d="m 205.4012,248.24 c 1.15937,-3.05924 5.75756,-12.46436 8.01915,-16.40233 2.49094,-4.33734 6.72473,-10.59369 9.69388,-14.32483 l 2.23387,-2.80716 -0.90244,-0.71284 c -1.59096,-1.2567 -12.38121,-8.9296 -12.7642,-9.07656 -0.49449,-0.18975 -6.60323,8.26992 -10.49007,14.52714 -4.80969,7.74285 -12.16858,22.91972 -12.47918,25.73687 -0.0645,0.58471 0.4941,0.81622 5.20779,2.15845 2.904,0.82692 6.288,1.80112 7.52,2.16489 1.232,0.36376 2.45673,0.67826 2.72163,0.69888 0.3104,0.0242 0.75109,-0.67355 1.23957,-1.96251 z"
           id="path12937" />
        <path
           style="display:inline;fill:#b2bee7;fill-opacity:1;stroke-width:0.32"
           d="m 242.84377,258.8 c 2.07064,-5.44536 8.44403,-16.85072 11.96573,-21.413 l 0.8895,-1.15233 -2.1695,-1.58064 c -1.19323,-0.86934 -5.1215,-3.67161 -8.7295,-6.22726 -11.89135,-8.42297 -13.59236,-9.646 -14.35293,-10.31977 l -0.75293,-0.667 -1.16707,1.39256 c -2.2629,2.70012 -6.7465,9.17956 -9.42993,13.62759 -3.68638,6.1105 -9.92008,18.74975 -9.46674,19.19444 0.0713,0.0699 5.1696,1.5229 11.3296,3.22886 6.16,1.70595 13.36,3.71789 16,4.47098 2.64,0.75308 4.87273,1.38642 4.96163,1.40741 0.0889,0.021 0.50386,-0.86184 0.92214,-1.96184 z"
           id="path12935" />
        <path
           style="display:inline;fill:#b2bee7;fill-opacity:1;stroke-width:0.32"
           d="m 235.26011,292.32 c 0.39103,-7.39029 2.00617,-16.75971 4.07959,-23.66569 l 0.90514,-3.0148 -2.12242,-0.64323 c -1.16733,-0.35377 -4.78642,-1.37996 -8.04242,-2.28043 -3.256,-0.90047 -9.5652,-2.65551 -14.02044,-3.9001 -4.64619,-1.29792 -8.21518,-2.14196 -8.36951,-1.97932 -0.3414,0.35979 -1.95884,5.67202 -3.05434,10.03148 -2.15456,8.57394 -3.54044,17.60306 -3.89478,25.37489 l -0.20074,4.40281 17.2499,-0.0828 L 235.04,296.48 Z"
           id="path12933" />
        <path
           style="display:inline;fill:#b2bee7;fill-opacity:1;stroke-width:0.32"
           d="m 195.52659,295.92 c 0.021,-2.29723 0.6993,-10.89971 1.12907,-14.32 0.90628,-7.2125 3.04613,-16.95154 5.18327,-23.59048 0.46573,-1.44676 0.78249,-2.69439 0.70392,-2.77251 -0.0786,-0.0781 -3.67085,-1.13789 -7.98285,-2.35505 -9.17751,-2.59055 -7.96754,-2.98302 -9.72161,3.15332 -3.44053,12.03621 -5.19934,22.92236 -5.82353,36.04472 l -0.2169,4.56 h 8.36102 8.36102 z"
           id="path12931" />
        <path
           style="display:inline;fill:#b2bee7;fill-opacity:1;stroke-width:0.32"
           d="m 224.01191,335.84467 c 8.52945,-2.76519 15.59768,-5.12148 15.70718,-5.23616 0.1095,-0.11469 -0.2204,-1.64852 -0.73311,-3.40851 -1.83705,-6.30612 -3.77916,-17.69661 -3.79035,-22.23045 -0.003,-0.97325 -0.0912,-2.09355 -0.19733,-2.48955 l -0.19295,-0.72 h -17.13069 -17.13069 l 0.2207,3.92 c 0.26411,4.69088 1.22568,12.50663 2.1358,17.36 1.44716,7.71715 4.50354,18.25436 5.21555,17.98115 0.21329,-0.0819 7.36644,-2.41127 15.89589,-5.17648 z"
           id="path12929" />
        <path
           style="display:inline;fill:#b2bee7;fill-opacity:1;stroke-width:0.32"
           d="m 195.35299,345.10547 7.48505,-2.42391 -0.41744,-1.18317 c -1.05249,-2.98307 -3.16511,-10.97564 -4.16615,-15.76159 -1.11933,-5.35152 -2.20429,-13.85829 -2.59888,-20.3768 l -0.21791,-3.6 H 187.15883 178.88 v 1.41454 c 0,2.5701 0.65647,11.16146 1.14812,15.02573 1.46901,11.54603 6.08499,30.00248 7.37942,29.50577 0.25322,-0.0972 3.82867,-1.26745 7.94545,-2.60057 z"
           id="path12927" />
        <path
           style="display:inline;fill:#b2bee7;fill-opacity:1;stroke-width:0.32"
           d="m 238.75139,373.09187 c 4.82273,-3.56704 10.59087,-7.83572 12.81808,-9.48596 l 4.04948,-3.00044 -3.25018,-4.86276 c -3.69277,-5.52489 -7.0073,-11.536 -9.14606,-16.58688 -0.80449,-1.89987 -1.5771,-3.47852 -1.7169,-3.50806 -0.1398,-0.0294 -2.9478,0.82413 -6.24,1.89706 -8.10081,2.64003 -22.63035,7.28147 -24.30581,7.76444 -0.748,0.21562 -1.36,0.50087 -1.36,0.63392 0,0.13303 1.01357,2.5009 2.25238,5.26196 2.62329,5.84672 5.98535,12.15116 8.81237,16.52476 3.13713,4.85338 8.57928,12.12375 8.96664,11.97888 0.19327,-0.0723 4.29727,-3.04988 9.12,-6.61692 z"
           id="path12925" />
        <path
           style="display:inline;fill:#b2bee7;fill-opacity:1;stroke-width:0.32"
           d="m 217.81819,388.45286 c 3.136,-2.30291 6.09781,-4.42195 6.58181,-4.70899 0.484,-0.28701 0.88,-0.61136 0.88,-0.72074 0,-0.10938 -0.9561,-1.41034 -2.12466,-2.89101 -2.46858,-3.1279 -6.95619,-9.76995 -9.36054,-13.8544 -2.13588,-3.62835 -5.96318,-11.27101 -7.71091,-15.39773 -0.74538,-1.76 -1.39593,-3.24473 -1.44567,-3.29942 -0.0874,-0.0961 -15.55507,4.73549 -15.79862,4.93494 -0.27867,0.22823 2.87954,7.47002 5.91558,13.56448 3.06257,6.14775 7.56294,13.78871 10.93141,18.56 2.82815,4.00596 5.90725,8 6.16735,8 0.14434,0 2.82826,-1.88422 5.96425,-4.18713 z"
           id="path12923" />
        <path
           style="display:inline;fill:#b2bee7;fill-opacity:1;stroke-width:0.32"
           d="m 274.85054,411.4383 c 0.9518,-1.80307 4.0838,-7.69693 6.96,-13.09751 2.8762,-5.40054 5.22637,-9.93654 5.22261,-10.08 -0.004,-0.14342 -1.19177,-0.94787 -2.64,-1.78761 -3.16723,-1.83651 -9.66835,-6.53075 -13.19315,-9.52631 -2.69233,-2.28809 -9.58121,-9.19817 -11.26915,-11.30384 l -0.99157,-1.23692 -2.50964,1.90787 c -1.3803,1.04934 -7.29209,5.44393 -13.1373,9.76582 l -10.62765,7.85792 4.06765,4.24896 c 6.68005,6.97776 14.02554,13.11482 22.46766,18.77139 3.35422,2.24749 12.99404,7.74298 13.6,7.75316 0.176,0.003 1.09874,-1.46986 2.05054,-3.27293 z"
           id="path12921" />
        <path
           style="display:inline;fill:#b2bee7;fill-opacity:1;stroke-width:0.32"
           d="m 407.6823,413.17657 c 5.15984,-2.81814 8.76733,-5.06496 13.91769,-8.66816 4.49869,-3.1473 10.06237,-7.4263 10.07325,-7.74733 0.004,-0.10937 -4.30966,-4.50137 -9.58525,-9.76 l -9.592,-9.56109 -2.328,1.87687 c -4.832,3.89561 -11.94569,8.46758 -17.32956,11.13773 -1.51716,0.75241 -2.75844,1.47302 -2.75844,1.60137 0,0.12832 1.56064,3.08423 3.46807,6.56867 7.16525,13.08932 9.29264,16.73536 9.76464,16.73536 0.20454,0 2.17085,-0.98252 4.3696,-2.18342 z"
           id="path12919" />
        <path
           style="display:inline;fill:#b2bee7;fill-opacity:1;stroke-width:0.32"
           d="m 349.43999,430.39756 c 11.49517,-0.99014 23.39402,-3.34691 33.44,-6.62339 7.32384,-2.38867 15.2,-5.57037 15.2,-6.14029 0,-0.28496 -12.35347,-22.68422 -12.76236,-23.14064 -0.11172,-0.1247 -1.5785,0.32675 -3.25952,1.00323 -10.6177,4.2728 -26.34272,7.38228 -37.33812,7.38327 l -2.96,2.5e-4 v 13.92 13.92 l 2,-0.003 c 1.1,0 3.656,-0.14534 5.68,-0.31968 z"
           id="path12917" />
        <path
           style="display:inline;fill:#b2bee7;fill-opacity:1;stroke-width:0.32"
           d="m 336.52694,428.27171 c -0.11383,-1.34656 -0.20695,-7.66052 -0.20695,-14.03104 v -11.58279 l -3.6,-0.20089 c -11.16604,-0.62317 -26.00711,-4.59453 -37.26321,-9.97136 -2.61821,-1.25069 -3.6637,-1.6112 -3.88206,-1.33866 -0.16437,0.20518 -2.2049,3.97302 -4.53451,8.37302 -2.32961,4.4 -5.36035,10.021 -6.73497,12.49111 -1.37463,2.47011 -2.54565,4.67056 -2.60228,4.88985 -0.16381,0.63431 8.75225,4.25328 17.3526,7.0433 8.57826,2.78285 16.45122,4.50342 26.54444,5.80106 5.81033,0.747 6.99151,0.84 11.64694,0.91702 l 3.48697,0.0577 z"
           id="path12915" />
        <path
           style="display:inline;fill:#b2bee7;fill-opacity:1;stroke-width:0.32"
           d="m 266.68777,426.44358 c 2.06034,-3.84803 3.70245,-7.03514 3.64915,-7.0825 -0.0533,-0.0473 -1.13627,-0.6064 -2.40659,-1.2424 -6.12351,-3.06573 -14.94795,-8.89817 -21.87262,-14.45657 -4.84534,-3.88932 -12.67561,-11.19453 -15.33771,-14.30925 -2.06829,-2.41991 -2.08451,-2.43072 -2.88,-1.91789 -1.60507,1.03472 -12.48,9.10906 -12.48,9.26605 0,0.43273 6.52085,7.4975 9.99571,10.8295 9.92057,9.51264 18.15094,15.70045 30.78765,23.14691 4.7911,2.82327 6.14047,3.48797 6.43085,3.16778 0.20212,-0.22288 2.05322,-3.5536 4.11356,-7.40163 z"
           id="path12913" />
        <path
           style="display:inline;fill:#b2bee7;fill-opacity:1;stroke-width:0.32"
           d="m 418.75423,432.76911 c 7.4314,-4.06336 13.10804,-7.68992 19.16576,-12.24416 4.14653,-3.11737 9.76,-7.71494 9.76,-7.99363 0,-0.11971 -2.73641,-2.95123 -6.08092,-6.29225 -4.61844,-4.61364 -6.18506,-5.99821 -6.5138,-5.75684 -0.23808,0.17476 -2.26937,1.80144 -4.51401,3.61485 -6.06247,4.89776 -15.86995,11.26403 -22.33645,14.49914 -1.44915,0.72499 -2.68035,1.35897 -2.736,1.40883 -0.0557,0.0499 0.8584,1.79709 2.0312,3.88278 1.17283,2.0857 3.08221,5.48416 4.24307,7.55216 1.16087,2.068 2.20624,3.76 2.32304,3.76 0.1168,0 2.21296,-1.09388 4.65811,-2.43088 z"
           id="path12911" />
        <path
           style="display:inline;fill:#b2bee7;fill-opacity:1;stroke-width:0.32"
           d="m 356.09164,452.30665 c 15.36579,-1.69472 28.31239,-4.7727 42.33594,-10.06515 4.40771,-1.66346 10.85241,-4.46717 10.85241,-4.72125 0,-0.12342 -8.21424,-14.69795 -8.48041,-15.04682 -0.0363,-0.0476 -1.63511,0.58372 -3.5528,1.40295 -11.3817,4.86208 -23.42602,8.3152 -35.64679,10.22 -5.85846,0.91312 -14.18972,1.74361 -17.49139,1.74361 h -2.34861 v 8.6897 8.6897 l 4.97165,-0.21437 c 2.73443,-0.11792 6.94643,-0.43216 9.36,-0.69837 z"
           id="path12909" />
        <path
           style="display:inline;fill:#b2bee7;fill-opacity:1;stroke-width:0.32"
           d="m 336.51423,452.61382 c -0.10684,-0.2784 -0.19424,-4.14403 -0.19424,-8.59031 v -8.08412 l -4.72,-0.213 c -16.26294,-0.73388 -33.05156,-4.44771 -49.35999,-10.91897 -2.552,-1.01264 -5.19396,-2.12263 -5.87102,-2.46663 -0.67705,-0.344 -1.27541,-0.57939 -1.32968,-0.52313 -0.21302,0.22089 -7.83677,14.51417 -7.838,14.69497 -0.003,0.43677 10.34422,4.76685 17.2787,7.23076 12.18699,4.33017 27.7913,7.72032 40.16,8.72508 5.95174,0.48346 6.75065,0.53328 9.55423,0.59562 2.17469,0.0483 2.488,-0.0125 2.32,-0.45027 z"
           id="path12907" />
      </g>
    </g>
  </g>
</svg>
