<?xml version="1.0" encoding="UTF-8" standalone="no"?>
<!DOCTYPE svg PUBLIC "-//W3C//DTD SVG 1.1//EN"
 "http://www.w3.org/Graphics/SVG/1.1/DTD/svg11.dtd">
<!-- Generated by graphviz version 2.50.0 (0)
 -->
<!-- Pages: 1 -->
<svg width="247pt" height="348pt"
 viewBox="21.60 21.60 225.60 326.60" xmlns="http://www.w3.org/2000/svg" xmlns:xlink="http://www.w3.org/1999/xlink">
<g id="graph0" class="graph" transform="scale(1 1) rotate(0) translate(25.6 322.6)">
<polygon fill="white" stroke="transparent" points="-4,4 -4,-301 200,-301 200,4 -4,4"/>
<!-- __start__ -->
<g id="node1" class="node">
<title>__start__</title>
<ellipse fill="#f4e8e8" stroke="black" cx="98" cy="-279" rx="47.89" ry="18"/>
<text text-anchor="middle" x="98" y="-276.5" font-family="Helvetica,sans-Serif" font-size="10.00">__start__</text>
</g>
<!-- load_documents -->
<g id="node3" class="node">
<title>load_documents</title>
<path fill="lightblue" stroke="black" d="M136,-232C136,-232 60,-232 60,-232 54,-232 48,-226 48,-220 48,-220 48,-208 48,-208 48,-202 54,-196 60,-196 60,-196 136,-196 136,-196 142,-196 148,-202 148,-208 148,-208 148,-220 148,-220 148,-226 142,-232 136,-232"/>
<text text-anchor="middle" x="98" y="-211.5" font-family="Helvetica,sans-Serif" font-size="10.00">load_documents</text>
</g>
<!-- __start__&#45;&gt;load_documents -->
<g id="edge3" class="edge">
<title>__start__&#45;&gt;load_documents</title>
<path fill="none" stroke="black" d="M98,-260.89C98,-260.89 98,-242.01 98,-242.01"/>
<polygon fill="black" stroke="black" points="101.5,-242.01 98,-232.01 94.5,-242.01 101.5,-242.01"/>
</g>
<!-- __end__ -->
<g id="node2" class="node">
<title>__end__</title>
<ellipse fill="#f4e8e8" stroke="black" cx="98" cy="-18" rx="45.34" ry="18"/>
<text text-anchor="middle" x="98" y="-15.5" font-family="Helvetica,sans-Serif" font-size="10.00">__end__</text>
</g>
<!-- review_documents -->
<g id="node4" class="node">
<title>review_documents</title>
<path fill="lightblue" stroke="#666666" d="M12,-130.5C12,-130.5 184,-130.5 184,-130.5 190,-130.5 196,-136.5 196,-142.5 196,-142.5 196,-154.5 196,-154.5 196,-160.5 190,-166.5 184,-166.5 184,-166.5 12,-166.5 12,-166.5 6,-166.5 0,-160.5 0,-154.5 0,-154.5 0,-142.5 0,-142.5 0,-136.5 6,-130.5 12,-130.5"/>
<text text-anchor="start" x="14" y="-147" font-family="Helvetica,sans-Serif" font-size="10.00" fill="#aa0000">●</text>
<text text-anchor="start" x="21" y="-147" font-family="Helvetica,sans-Serif" font-size="10.00"> </text>
<text text-anchor="start" x="25" y="-147" font-family="Helvetica,sans-Serif" font-style="italic" font-size="10.00">Intr. before</text>
<polyline fill="none" stroke="#666666" points="86,-130.5 86,-166.5 "/>
<text text-anchor="start" x="100" y="-146" font-family="Helvetica,sans-Serif" font-size="10.00">review_documents</text>
</g>
<!-- load_documents&#45;&gt;review_documents -->
<g id="edge1" class="edge">
<title>load_documents&#45;&gt;review_documents</title>
<path fill="none" stroke="black" d="M98,-195.75C98,-195.75 98,-176.65 98,-176.65"/>
<polygon fill="black" stroke="black" points="101.5,-176.65 98,-166.65 94.5,-176.65 101.5,-176.65"/>
</g>
<!-- process_documents -->
<g id="node5" class="node">
<title>process_documents</title>
<path fill="lightblue" stroke="black" d="M144,-101C144,-101 52,-101 52,-101 46,-101 40,-95 40,-89 40,-89 40,-77 40,-77 40,-71 46,-65 52,-65 52,-65 144,-65 144,-65 150,-65 156,-71 156,-77 156,-77 156,-89 156,-89 156,-95 150,-101 144,-101"/>
<text text-anchor="middle" x="98" y="-80.5" font-family="Helvetica,sans-Serif" font-size="10.00">process_documents</text>
</g>
<!-- review_documents&#45;&gt;process_documents -->
<g id="edge2" class="edge">
<title>review_documents&#45;&gt;process_documents</title>
<path fill="none" stroke="black" d="M98,-130.25C98,-130.25 98,-111.15 98,-111.15"/>
<polygon fill="black" stroke="black" points="101.5,-111.15 98,-101.15 94.5,-111.15 101.5,-111.15"/>
</g>
<!-- process_documents&#45;&gt;__end__ -->
<g id="edge4" class="edge">
<title>process_documents&#45;&gt;__end__</title>
<path fill="none" stroke="black" d="M98,-64.89C98,-64.89 98,-46.01 98,-46.01"/>
<polygon fill="black" stroke="black" points="101.5,-46.01 98,-36.01 94.5,-46.01 101.5,-46.01"/>
</g>
</g>
</svg>
