<?xml version="1.0" encoding="UTF-8"?>
<svg width="550.0" height="390.0" xmlns="http://www.w3.org/2000/svg" viewBox="0 0 550.0 390.0">
    <circle cx="0" cy="0" r="30.0" fill="lightgray" fill-opacity="1.0" stroke="black" stroke-width="2.0" stroke-opacity="1.0" stroke-linecap="butt" transform="translate(80,80) scale(1,1) rotate(0,0,0) skewX(0) skewY(0)" />
    <circle cx="0" cy="0" r="35.0" fill="lightblue" fill-opacity="1.0" stroke="navy" stroke-width="3.0" stroke-opacity="1.0" stroke-linecap="butt" transform="translate(200,80) scale(1,1) rotate(0,0,0) skewX(0) skewY(0)" />
    <circle cx="0" cy="0" r="40.0" fill="coral" fill-opacity="0.7" stroke="red" stroke-width="2.0" stroke-opacity="1.0" stroke-linecap="butt" transform="translate(350,80) scale(1,1) rotate(0,0,0) skewX(0) skewY(0)" />
    <circle cx="0" cy="0" r="45.0" fill="lightgreen" fill-opacity="1.0" stroke="green" stroke-width="3.0" stroke-opacity="1.0" stroke-linecap="butt" transform="translate(500,80) scale(1,1) rotate(0,0,0) skewX(0) skewY(0)" />
    <circle cx="0" cy="0" r="30.0" fill="lightpink" fill-opacity="1.0" stroke="deeppink" stroke-width="3.0" stroke-opacity="1.0" stroke-dasharray="10.0,5.0" stroke-linecap="butt" transform="translate(80,200) scale(1,1) rotate(0,0,0) skewX(0) skewY(0)" />
    <circle cx="0" cy="0" r="35.0" fill="none" fill-opacity="1.0" stroke="purple" stroke-width="4.0" stroke-opacity="1.0" stroke-linecap="butt" transform="translate(200,200) scale(1,1) rotate(0,0,0) skewX(0) skewY(0)" />
    <circle cx="0" cy="0" r="20.0" fill="gold" fill-opacity="1.0" stroke="orange" stroke-width="2.0" stroke-opacity="1.0" stroke-linecap="butt" transform="translate(350,200) scale(1.8) rotate(0,0,0) skewX(0) skewY(0)" />
    <circle cx="0" cy="0" r="15.0" fill="skyblue" fill-opacity="1.0" stroke="blue" stroke-width="1.0" stroke-opacity="1.0" stroke-linecap="butt" transform="translate(480,180) scale(1,1) rotate(0,0,0) skewX(0) skewY(0)" />
    <circle cx="0" cy="0" r="15.0" fill="lightcyan" fill-opacity="1.0" stroke="teal" stroke-width="1.0" stroke-opacity="1.0" stroke-linecap="butt" transform="translate(520,180) scale(1,1) rotate(0,0,0) skewX(0) skewY(0)" />
    <circle cx="0" cy="0" r="15.0" fill="lavender" fill-opacity="1.0" stroke="indigo" stroke-width="1.0" stroke-opacity="1.0" stroke-linecap="butt" transform="translate(500,220) scale(1,1) rotate(0,0,0) skewX(0) skewY(0)" />
    <circle cx="0" cy="0" r="60.0" fill="yellow" fill-opacity="0.3" stroke="orange" stroke-width="1.0" stroke-opacity="1.0" stroke-linecap="butt" transform="translate(150,320) scale(1,1) rotate(0,0,0) skewX(0) skewY(0)" />
    <circle cx="0" cy="0" r="25.0" fill="lightsteelblue" fill-opacity="1.0" stroke="steelblue" stroke-width="2.0" stroke-opacity="1.0" stroke-linecap="butt" transform="translate(350,320) scale(1,1) rotate(0,0,0) skewX(0) skewY(0)" />
    <circle cx="0" cy="0" r="25.0" fill="mistyrose" fill-opacity="1.0" stroke="rosybrown" stroke-width="2.0" stroke-opacity="1.0" stroke-linecap="butt" transform="translate(450,320) scale(1,1) rotate(0,0,0) skewX(0) skewY(0)" />
</svg>
