<?xml version="1.0" encoding="UTF-8"?>
<svg width="580.0" height="400.0" viewBox="0 0 580.0 400.0" xmlns="http://www.w3.org/2000/svg" xmlns:xlink="http://www.w3.org/1999/xlink">
    <circle cx="50" cy="50" r="30.0" fill="lightgray" fill-opacity="1.0" stroke="black" stroke-width="2.0" stroke-opacity="1.0" stroke-linecap="butt" transform="translate(30,30) scale(1,1) rotate(0,0,0) skewX(0) skewY(0)" />
    <circle cx="50" cy="50" r="35.0" fill="lightblue" fill-opacity="1.0" stroke="navy" stroke-width="3.0" stroke-opacity="1.0" stroke-linecap="butt" transform="translate(150,30) scale(1,1) rotate(0,0,0) skewX(0) skewY(0)" />
    <circle cx="50" cy="50" r="40.0" fill="coral" fill-opacity="0.7" stroke="red" stroke-width="2.0" stroke-opacity="1.0" stroke-linecap="butt" transform="translate(300,30) scale(1,1) rotate(0,0,0) skewX(0) skewY(0)" />
    <circle cx="50" cy="50" r="45.0" fill="lightgreen" fill-opacity="1.0" stroke="green" stroke-width="3.0" stroke-opacity="1.0" stroke-linecap="butt" transform="translate(450,30) scale(1,1) rotate(0,0,0) skewX(0) skewY(0)" />
    <circle cx="50" cy="50" r="30.0" fill="lightpink" fill-opacity="1.0" stroke="deeppink" stroke-width="3.0" stroke-opacity="1.0" stroke-dasharray="10.0,5.0" stroke-linecap="butt" transform="translate(30,150) scale(1,1) rotate(0,0,0) skewX(0) skewY(0)" />
    <circle cx="50" cy="50" r="35.0" fill="none" fill-opacity="1.0" stroke="purple" stroke-width="4.0" stroke-opacity="1.0" stroke-linecap="butt" transform="translate(150,150) scale(1,1) rotate(0,0,0) skewX(0) skewY(0)" />
    <circle cx="50" cy="50" r="20.0" fill="gold" fill-opacity="1.0" stroke="orange" stroke-width="2.0" stroke-opacity="1.0" stroke-linecap="butt" transform="translate(300,150) scale(1.8) rotate(0,0,0) skewX(0) skewY(0)" />
    <circle cx="50" cy="50" r="15.0" fill="skyblue" fill-opacity="1.0" stroke="blue" stroke-width="1.0" stroke-opacity="1.0" stroke-linecap="butt" transform="translate(430,130) scale(1,1) rotate(0,0,0) skewX(0) skewY(0)" />
    <circle cx="50" cy="50" r="15.0" fill="lightcyan" fill-opacity="1.0" stroke="teal" stroke-width="1.0" stroke-opacity="1.0" stroke-linecap="butt" transform="translate(470,130) scale(1,1) rotate(0,0,0) skewX(0) skewY(0)" />
    <circle cx="50" cy="50" r="15.0" fill="lavender" fill-opacity="1.0" stroke="indigo" stroke-width="1.0" stroke-opacity="1.0" stroke-linecap="butt" transform="translate(450,170) scale(1,1) rotate(0,0,0) skewX(0) skewY(0)" />
    <circle cx="50" cy="50" r="60.0" fill="yellow" fill-opacity="0.3" stroke="orange" stroke-width="1.0" stroke-opacity="1.0" stroke-linecap="butt" transform="translate(100,270) scale(1,1) rotate(0,0,0) skewX(0) skewY(0)" />
    <circle cx="50" cy="50" r="25.0" fill="lightsteelblue" fill-opacity="1.0" stroke="steelblue" stroke-width="2.0" stroke-opacity="1.0" stroke-linecap="butt" transform="translate(300,270) scale(1,1) rotate(0,0,0) skewX(0) skewY(0)" />
    <circle cx="50" cy="50" r="25.0" fill="mistyrose" fill-opacity="1.0" stroke="rosybrown" stroke-width="2.0" stroke-opacity="1.0" stroke-linecap="butt" transform="translate(400,270) scale(1,1) rotate(0,0,0) skewX(0) skewY(0)" />
</svg>
