<?xml version="1.0" encoding="UTF-8"?>
<svg width="770.0" height="470.0" viewBox="0 0 700 450" xmlns="http://www.w3.org/2000/svg" xmlns:xlink="http://www.w3.org/1999/xlink">
    <ellipse cx="100" cy="50" rx="40.0" ry="25.0" fill="lightgray" fill-opacity="1.0" stroke="black" stroke-width="2.0" stroke-opacity="1.0" stroke-linecap="butt" transform="translate(-20,30) scale(1,1) rotate(0,0,0) skewX(0) skewY(0)" />
    <ellipse cx="100" cy="50" rx="45.0" ry="30.0" fill="lightblue" fill-opacity="1.0" stroke="navy" stroke-width="3.0" stroke-opacity="1.0" stroke-linecap="butt" transform="translate(100,30) scale(1,1) rotate(0,0,0) skewX(0) skewY(0)" />
    <ellipse cx="100" cy="50" rx="25.0" ry="50.0" fill="lightgreen" fill-opacity="1.0" stroke="green" stroke-width="2.0" stroke-opacity="1.0" stroke-linecap="butt" transform="translate(250,30) scale(1,1) rotate(0,0,0) skewX(0) skewY(0)" />
    <ellipse cx="100" cy="50" rx="35.0" ry="35.0" fill="lightcoral" fill-opacity="1.0" stroke="red" stroke-width="2.0" stroke-opacity="1.0" stroke-linecap="butt" transform="translate(380,30) scale(1,1) rotate(0,0,0) skewX(0) skewY(0)" />
    <ellipse cx="100" cy="50" rx="60.0" ry="15.0" fill="lightyellow" fill-opacity="1.0" stroke="orange" stroke-width="2.0" stroke-opacity="1.0" stroke-linecap="butt" transform="translate(500,30) scale(1,1) rotate(0,0,0) skewX(0) skewY(0)" />
    <ellipse cx="100" cy="50" rx="50.0" ry="35.0" fill="lightpink" fill-opacity="0.6" stroke="deeppink" stroke-width="2.0" stroke-opacity="1.0" stroke-linecap="butt" transform="translate(-20,150) scale(1,1) rotate(0,0,0) skewX(0) skewY(0)" />
    <ellipse cx="100" cy="50" rx="45.0" ry="25.0" fill="lavender" fill-opacity="1.0" stroke="purple" stroke-width="3.0" stroke-opacity="1.0" stroke-dasharray="12.0,6.0" stroke-linecap="butt" transform="translate(100,150) scale(1,1) rotate(0,0,0) skewX(0) skewY(0)" />
    <ellipse cx="100" cy="50" rx="40.0" ry="30.0" fill="none" fill-opacity="1.0" stroke="teal" stroke-width="4.0" stroke-opacity="1.0" stroke-linecap="butt" transform="translate(250,150) scale(1,1) rotate(0,0,0) skewX(0) skewY(0)" />
    <ellipse cx="100" cy="50" rx="50.0" ry="20.0" fill="gold" fill-opacity="1.0" stroke="darkorange" stroke-width="2.0" stroke-opacity="1.0" stroke-linecap="butt" transform="translate(380,150) scale(1,1) rotate(45,100,50) skewX(0) skewY(0)" />
    <ellipse cx="100" cy="50" rx="25.0" ry="25.0" fill="lightsteelblue" fill-opacity="1.0" stroke="steelblue" stroke-width="2.0" stroke-opacity="1.0" stroke-linecap="butt" transform="translate(400,150) scale(2.0,1.2) rotate(0,0,0) skewX(0) skewY(0)" />
    <ellipse cx="100" cy="50" rx="60.0" ry="15.0" fill="pink" fill-opacity="0.7" stroke="hotpink" stroke-width="1.0" stroke-opacity="1.0" stroke-linecap="butt" transform="translate(50,300) scale(1,1) rotate(0,100,50) skewX(0) skewY(0)" />
    <ellipse cx="100" cy="50" rx="60.0" ry="15.0" fill="pink" fill-opacity="0.7" stroke="hotpink" stroke-width="1.0" stroke-opacity="1.0" stroke-linecap="butt" transform="translate(50,300) scale(1,1) rotate(30,100,50) skewX(0) skewY(0)" />
    <ellipse cx="100" cy="50" rx="60.0" ry="15.0" fill="pink" fill-opacity="0.7" stroke="hotpink" stroke-width="1.0" stroke-opacity="1.0" stroke-linecap="butt" transform="translate(50,300) scale(1,1) rotate(60,100,50) skewX(0) skewY(0)" />
    <ellipse cx="100" cy="50" rx="60.0" ry="15.0" fill="pink" fill-opacity="0.7" stroke="hotpink" stroke-width="1.0" stroke-opacity="1.0" stroke-linecap="butt" transform="translate(50,300) scale(1,1) rotate(90,100,50) skewX(0) skewY(0)" />
    <ellipse cx="100" cy="50" rx="60.0" ry="15.0" fill="pink" fill-opacity="0.7" stroke="hotpink" stroke-width="1.0" stroke-opacity="1.0" stroke-linecap="butt" transform="translate(50,300) scale(1,1) rotate(120,100,50) skewX(0) skewY(0)" />
    <ellipse cx="100" cy="50" rx="60.0" ry="15.0" fill="pink" fill-opacity="0.7" stroke="hotpink" stroke-width="1.0" stroke-opacity="1.0" stroke-linecap="butt" transform="translate(50,300) scale(1,1) rotate(150,100,50) skewX(0) skewY(0)" />
    <ellipse cx="100" cy="50" rx="15.0" ry="15.0" fill="yellow" fill-opacity="1.0" stroke="orange" stroke-width="2.0" stroke-opacity="1.0" stroke-linecap="butt" transform="translate(50,300) scale(1,1) rotate(0,0,0) skewX(0) skewY(0)" />
    <ellipse cx="100" cy="50" rx="80.0" ry="50.0" fill="lightcyan" fill-opacity="1.0" stroke="cyan" stroke-width="2.0" stroke-opacity="1.0" stroke-linecap="butt" transform="translate(300,300) scale(1,1) rotate(0,0,0) skewX(0) skewY(0)" />
    <ellipse cx="100" cy="50" rx="60.0" ry="37.0" fill="lightblue" fill-opacity="1.0" stroke="blue" stroke-width="2.0" stroke-opacity="1.0" stroke-linecap="butt" transform="translate(300,300) scale(1,1) rotate(0,0,0) skewX(0) skewY(0)" />
    <ellipse cx="100" cy="50" rx="40.0" ry="25.0" fill="lightsteelblue" fill-opacity="1.0" stroke="steelblue" stroke-width="2.0" stroke-opacity="1.0" stroke-linecap="butt" transform="translate(300,300) scale(1,1) rotate(0,0,0) skewX(0) skewY(0)" />
    <ellipse cx="100" cy="50" rx="20.0" ry="12.0" fill="white" fill-opacity="1.0" stroke="navy" stroke-width="1.0" stroke-opacity="1.0" stroke-linecap="butt" transform="translate(300,300) scale(1,1) rotate(0,0,0) skewX(0) skewY(0)" />
    <ellipse cx="100" cy="50" rx="30.0" ry="15.0" fill="lightseagreen" fill-opacity="1.0" stroke="seagreen" stroke-width="2.0" stroke-opacity="1.0" stroke-linecap="butt" transform="translate(450,270) scale(1,1) rotate(0,0,0) skewX(0) skewY(0)" />
    <ellipse cx="100" cy="50" rx="30.0" ry="15.0" fill="lightseagreen" fill-opacity="1.0" stroke="seagreen" stroke-width="2.0" stroke-opacity="1.0" stroke-linecap="butt" transform="translate(500,300) scale(1,1) rotate(0,0,0) skewX(0) skewY(0)" />
    <ellipse cx="100" cy="50" rx="30.0" ry="15.0" fill="lightseagreen" fill-opacity="1.0" stroke="seagreen" stroke-width="2.0" stroke-opacity="1.0" stroke-linecap="butt" transform="translate(450,330) scale(1,1) rotate(0,0,0) skewX(0) skewY(0)" />
    <ellipse cx="100" cy="50" rx="30.0" ry="15.0" fill="lightseagreen" fill-opacity="1.0" stroke="seagreen" stroke-width="2.0" stroke-opacity="1.0" stroke-linecap="butt" transform="translate(400,300) scale(1,1) rotate(0,0,0) skewX(0) skewY(0)" />
</svg>
